<svg xmlns="http://www.w3.org/2000/svg" viewBox="0 0 1051.65 415.88"><defs><style>.cls-1{fill:#f0c893;stroke:#000;stroke-width:1.5px;}.cls-1,.cls-3,.cls-4,.cls-5{stroke-miterlimit:10;}.cls-2{fill:#25211b;}.cls-3,.cls-4,.cls-5{fill:none;stroke:#25211b;}.cls-3{stroke-width:4px;}.cls-4{stroke-width:3px;}.cls-5{stroke-width:2.5px;}</style></defs><title>karta věštba</title><g id="Vrstva_12" data-name="Vrstva 12"><rect class="cls-1" x="318.83" y="-316.95" width="414.03" height="1049.97" rx="19.26" ry="19.26" transform="translate(733.88 -317.8) rotate(90)"/><path class="cls-2" d="M453.66,38.29a1.54,1.54,0,0,0,.1.45L459.38,53,465,38.59a.93.93,0,0,0,.06-.18.82.82,0,0,0,0-.18.56.56,0,0,0-.3-.53,1.17,1.17,0,0,0-.56-.16v-.3h3.48v.3a1.69,1.69,0,0,0-.88.24,1.6,1.6,0,0,0-.62.81L458.9,57.4l-7.47-18.72a2.16,2.16,0,0,0-.56-.78,1.43,1.43,0,0,0-.91-.36v-.3h4.54v.3a.92.92,0,0,0-.56.19A.64.64,0,0,0,453.66,38.29Z"/><path class="cls-2" d="M475.41,57V55.51l-.15.15a6,6,0,0,1-1.84,1.17A7.71,7.71,0,0,1,469,57a3.6,3.6,0,0,1-1.31-.67,2.7,2.7,0,0,1-.75-1,3.06,3.06,0,0,1-.24-1.2,2.92,2.92,0,0,1,.59-1.8A5.07,5.07,0,0,1,469,51a15,15,0,0,1,2.73-1.09c1.07-.33,2.3-.66,3.68-1A3.92,3.92,0,0,0,474.9,47a3.59,3.59,0,0,0-1-1.13,3.51,3.51,0,0,0-1.28-.54,5.85,5.85,0,0,0-1.15-.13,3.89,3.89,0,0,0-2.53.85,4.64,4.64,0,0,0-.79.81,6,6,0,0,0-.51.83h-.28V45.49a1.34,1.34,0,0,0,.48-.15,4.07,4.07,0,0,1,.54-.24l1.31-.53a6.27,6.27,0,0,1,2.33-.34,8,8,0,0,1,2.84.42,4.08,4.08,0,0,1,1.67,1.11,3.49,3.49,0,0,1,.79,1.57,9.14,9.14,0,0,1,.19,1.82v5.94a2.24,2.24,0,0,0,.29,1.13.84.84,0,0,0,.76.52V57Zm0-2.85V49.9l-.31.06c-.52.12-1.14.28-1.87.48a11.84,11.84,0,0,0-2.09.78,6.59,6.59,0,0,0-1.69,1.14,2,2,0,0,0-.71,1.53,1.93,1.93,0,0,0,.83,1.59,3.51,3.51,0,0,0,2.17.63,3.84,3.84,0,0,0,1.86-.43,6,6,0,0,0,1.46-1.13Z"/><path class="cls-2" d="M491.63,53.62a2.71,2.71,0,0,1-.41,1.44,4.05,4.05,0,0,1-1.14,1.16,5.73,5.73,0,0,1-1.67.78,7.27,7.27,0,0,1-2.08.28,6.08,6.08,0,0,1-2.23-.34,10.14,10.14,0,0,1-1.47-.71c-.28-.16-.53-.29-.77-.4a1.76,1.76,0,0,0-.76-.17V53.38h.32a2.07,2.07,0,0,0,.56.92,5.69,5.69,0,0,0,1.11.91,7.42,7.42,0,0,0,1.44.71,4.58,4.58,0,0,0,1.58.28,6.06,6.06,0,0,0,1.18-.12,3.88,3.88,0,0,0,1.1-.39,2.75,2.75,0,0,0,.83-.67,1.46,1.46,0,0,0,.34-1,1.52,1.52,0,0,0-.35-1,3.47,3.47,0,0,0-.9-.73,6.8,6.8,0,0,0-1.24-.56q-.7-.24-1.41-.45c-.55-.16-1.11-.34-1.67-.54a8.22,8.22,0,0,1-1.52-.7,3.5,3.5,0,0,1-1.09-1,2.38,2.38,0,0,1-.41-1.39,3.32,3.32,0,0,1,.27-1.32,2.74,2.74,0,0,1,.89-1.1,5.08,5.08,0,0,1,1.62-.75,8.71,8.71,0,0,1,2.39-.28,7.41,7.41,0,0,1,1.93.19,7.65,7.65,0,0,1,1.14.41,2.68,2.68,0,0,0,.57.22,2.49,2.49,0,0,0,.64.08v2.1h-.26a3.57,3.57,0,0,0-1.75-1.5,6.09,6.09,0,0,0-2.43-.51,4.28,4.28,0,0,0-1.37.19,3.18,3.18,0,0,0-.94.48,1.86,1.86,0,0,0-.55.65,1.72,1.72,0,0,0-.17.72,1.31,1.31,0,0,0,.3.87,2.63,2.63,0,0,0,.83.63,11,11,0,0,0,1.18.51c.44.16.9.31,1.39.45s1.19.37,1.79.59a7.65,7.65,0,0,1,1.6.76,4.37,4.37,0,0,1,1.15,1.07A2.49,2.49,0,0,1,491.63,53.62Zm-9.1-14.73,3.87,1.71,3.8-1.71.06.12-3.86,3.12-4-3.12Z"/><path class="cls-2" d="M495.81,51a7.15,7.15,0,0,0,.55,2,5.52,5.52,0,0,0,1.1,1.66,5,5,0,0,0,1.67,1.16,5.69,5.69,0,0,0,2.3.43,6.21,6.21,0,0,0,1.49-.19,6.32,6.32,0,0,0,1.45-.56,5.23,5.23,0,0,0,1.2-.88,2.67,2.67,0,0,0,.71-1.19h.29v2.25a1,1,0,0,0-.43.12l-.56.3a12.29,12.29,0,0,1-1.72.77,8.42,8.42,0,0,1-2.87.4,9.38,9.38,0,0,1-2.73-.39,6.51,6.51,0,0,1-2.29-1.2,5.89,5.89,0,0,1-1.58-2.07,7.07,7.07,0,0,1-.59-3,6.68,6.68,0,0,1,.4-2.25,6.22,6.22,0,0,1,1.21-2.06,6.06,6.06,0,0,1,2.1-1.48,7.46,7.46,0,0,1,3.06-.57,7.05,7.05,0,0,1,2.79.51,5.33,5.33,0,0,1,2,1.41,6,6,0,0,1,1.17,2.13,9.22,9.22,0,0,1,.38,2.7Zm4.63-5.76a4.16,4.16,0,0,0-1.93.42,4.77,4.77,0,0,0-1.39,1.08,4.93,4.93,0,0,0-.89,1.5,7.38,7.38,0,0,0-.42,1.68h9.1a5.63,5.63,0,0,0-.33-1.71,5.26,5.26,0,0,0-.85-1.5,4.06,4.06,0,0,0-1.37-1.07A4.34,4.34,0,0,0,500.44,45.22Z"/><path class="cls-2" d="M531.74,44.44v.3a.81.81,0,0,0-.45.15,2.2,2.2,0,0,0-.43.39,3.31,3.31,0,0,0-.38.52c-.12.19-.22.37-.31.53l-5.49,11.22-5.46-11.34a6.69,6.69,0,0,0-.57-1,1.06,1.06,0,0,0-.9-.49v-.3h4.38v.3a1,1,0,0,0-.5.18.56.56,0,0,0-.3.51,2.29,2.29,0,0,0,.25.69l3.68,7.77,4-8.1a1.21,1.21,0,0,0,.13-.45.5.5,0,0,0-.27-.44.91.91,0,0,0-.46-.16v-.3Z"/><path class="cls-2" d="M533.47,51a7.49,7.49,0,0,0,.54,2,5.75,5.75,0,0,0,1.11,1.66,5,5,0,0,0,1.67,1.16,5.69,5.69,0,0,0,2.3.43,6.21,6.21,0,0,0,1.49-.19,6.32,6.32,0,0,0,1.45-.56,5.17,5.17,0,0,0,1.19-.88,2.61,2.61,0,0,0,.72-1.19h.29v2.25a1,1,0,0,0-.43.12l-.56.3a12.85,12.85,0,0,1-1.72.77,8.49,8.49,0,0,1-2.88.4,9.48,9.48,0,0,1-2.73-.39,6.55,6.55,0,0,1-2.28-1.2,5.77,5.77,0,0,1-1.58-2.07,7.07,7.07,0,0,1-.59-3,6.68,6.68,0,0,1,.4-2.25,6.05,6.05,0,0,1,1.21-2.06,6.12,6.12,0,0,1,2.09-1.48,7.51,7.51,0,0,1,3.07-.57,7.09,7.09,0,0,1,2.79.51,5.33,5.33,0,0,1,2,1.41,6,6,0,0,1,1.17,2.13,9.22,9.22,0,0,1,.38,2.7Zm4.63-5.76a4.16,4.16,0,0,0-1.93.42,4.64,4.64,0,0,0-1.39,1.08,4.93,4.93,0,0,0-.89,1.5,6.89,6.89,0,0,0-.42,1.68h9.1a5.36,5.36,0,0,0-.34-1.71,5,5,0,0,0-.84-1.5A4.06,4.06,0,0,0,540,45.62,4.37,4.37,0,0,0,538.1,45.22Zm-3.54-5.67,3.86,1.71,3.8-1.71.06.12-3.86,3.12-4-3.12Z"/><path class="cls-2" d="M557.65,53.62a2.63,2.63,0,0,1-.42,1.44,3.89,3.89,0,0,1-1.13,1.16,5.91,5.91,0,0,1-1.68.78,7.2,7.2,0,0,1-2.07.28,6.14,6.14,0,0,1-2.24-.34,10.51,10.51,0,0,1-1.46-.71c-.28-.16-.54-.29-.77-.4a1.81,1.81,0,0,0-.77-.17V53.38h.32a2.17,2.17,0,0,0,.56.92,5.76,5.76,0,0,0,1.12.91,7.06,7.06,0,0,0,1.43.71,4.62,4.62,0,0,0,1.58.28,6.16,6.16,0,0,0,1.19-.12,3.88,3.88,0,0,0,1.1-.39,2.88,2.88,0,0,0,.83-.67,1.6,1.6,0,0,0,0-2,3.26,3.26,0,0,0-.89-.73,6.91,6.91,0,0,0-1.25-.56c-.47-.16-.93-.31-1.4-.45s-1.11-.34-1.68-.54a8.11,8.11,0,0,1-1.51-.7,3.5,3.5,0,0,1-1.09-1,2.31,2.31,0,0,1-.41-1.39,3.32,3.32,0,0,1,.27-1.32,2.74,2.74,0,0,1,.89-1.1,5,5,0,0,1,1.61-.75,8.79,8.79,0,0,1,2.4-.28,6.3,6.3,0,0,1,3.06.6,2.56,2.56,0,0,0,.58.22,2.47,2.47,0,0,0,.63.08v2.1h-.25a3.59,3.59,0,0,0-1.76-1.5,6,6,0,0,0-2.42-.51,4.34,4.34,0,0,0-1.38.19,3.31,3.31,0,0,0-.94.48,1.94,1.94,0,0,0-.54.65,1.6,1.6,0,0,0-.18.72,1.32,1.32,0,0,0,.31.87,2.63,2.63,0,0,0,.83.63,10.18,10.18,0,0,0,1.18.51c.43.16.9.31,1.39.45s1.19.37,1.78.59a7.65,7.65,0,0,1,1.6.76,4.22,4.22,0,0,1,1.15,1.07A2.43,2.43,0,0,1,557.65,53.62Zm-9.1-14.73,3.86,1.71,3.8-1.71.07.12-3.87,3.12-4-3.12Z"/><path class="cls-2" d="M563.52,45.46v7.23q0,.78,0,1.41a5.3,5.3,0,0,0,.16,1,1.43,1.43,0,0,0,.39.65,1,1,0,0,0,.7.22,1.74,1.74,0,0,0,1.26-.6,2.79,2.79,0,0,0,.75-1.44h.29v2.19a.68.68,0,0,0-.48.18,4.15,4.15,0,0,1-.72.45,3.12,3.12,0,0,1-1.39.24,3.27,3.27,0,0,1-1.79-.42,2.43,2.43,0,0,1-.92-1.11,4.9,4.9,0,0,1-.34-1.53c0-.56-.05-1.13-.05-1.71V45.46h-1.78v-1h1.78V41.77a2.91,2.91,0,0,0-.14-1c-.09-.29-.41-.44-.94-.46v-.3l3.19-1v5.34h3.58v1Z"/><path class="cls-2" d="M576.32,44.23a7.57,7.57,0,0,1,3,.54,6,6,0,0,1,2.09,1.44,5.9,5.9,0,0,1,1.24,2,6.87,6.87,0,0,1,.42,2.36,7.21,7.21,0,0,1-.42,2.42,6.07,6.07,0,0,1-1.26,2.13,6.21,6.21,0,0,1-2.09,1.51,6.84,6.84,0,0,1-2.87.57,5.07,5.07,0,0,1-2.2-.46,4.77,4.77,0,0,1-1.57-1.13V57h-3.13v-.3a.61.61,0,0,0,.42-.18,1.7,1.7,0,0,0,.33-.42,1.58,1.58,0,0,0,.21-.52,2.61,2.61,0,0,0,.06-.53V39.79a2.76,2.76,0,0,0-.16-1c-.1-.3-.41-.46-.92-.48v-.3l3.19-.93V45.7a5.67,5.67,0,0,1,3.67-1.47Zm.32,12a4.45,4.45,0,0,0,2-.52A4.58,4.58,0,0,0,580,54.52a4.93,4.93,0,0,0,.83-1.63,6.63,6.63,0,0,0,.27-1.88,7.08,7.08,0,0,0-.32-2.1,5.67,5.67,0,0,0-.94-1.83,4.69,4.69,0,0,0-1.55-1.31,4.4,4.4,0,0,0-2.1-.49,3.15,3.15,0,0,0-1.31.28,4,4,0,0,0-1.14.75,3.76,3.76,0,0,0-.8,1.11,3.22,3.22,0,0,0-.3,1.37v3.72a3.44,3.44,0,0,0,.35,1.56,3.82,3.82,0,0,0,.93,1.17,4.13,4.13,0,0,0,1.29.74A4.21,4.21,0,0,0,576.64,56.23Z"/><path class="cls-2" d="M593.85,57V55.51l-.16.15a5.89,5.89,0,0,1-1.84,1.17,6.64,6.64,0,0,1-2.5.42,6.7,6.7,0,0,1-1.92-.24,3.6,3.6,0,0,1-1.31-.67,2.7,2.7,0,0,1-.75-1,3.06,3.06,0,0,1-.24-1.2,2.92,2.92,0,0,1,.59-1.8A5.28,5.28,0,0,1,587.43,51a15.64,15.64,0,0,1,2.73-1.09c1.08-.33,2.3-.66,3.69-1a3.92,3.92,0,0,0-.51-1.89,3.61,3.61,0,0,0-1.06-1.13,3.53,3.53,0,0,0-1.27-.54,5.93,5.93,0,0,0-1.15-.13,3.95,3.95,0,0,0-2.54.85,4.24,4.24,0,0,0-.78.81,6,6,0,0,0-.51.83h-.29V45.49a1.34,1.34,0,0,0,.48-.15,4.76,4.76,0,0,1,.54-.24l1.31-.53a6.27,6.27,0,0,1,2.33-.34,8,8,0,0,1,2.84.42,4.11,4.11,0,0,1,1.68,1.11,3.58,3.58,0,0,1,.78,1.57,8.45,8.45,0,0,1,.19,1.82v5.94a2.35,2.35,0,0,0,.29,1.13.86.86,0,0,0,.77.52V57Zm0-2.85V49.9l-.32.06c-.51.12-1.13.28-1.87.48a12.14,12.14,0,0,0-2.09.78,6.76,6.76,0,0,0-1.69,1.14,2,2,0,0,0-.7,1.53,1.9,1.9,0,0,0,.83,1.59,3.47,3.47,0,0,0,2.17.63,3.8,3.8,0,0,0,1.85-.43,6.28,6.28,0,0,0,1.47-1.13Z"/><path class="cls-3" d="M1020.23,14.39H29.66"/><path class="cls-3" d="M1037.08,383.75V30.89"/><path class="cls-3" d="M29.66,400.6h990.92"/><path class="cls-3" d="M12.81,31.24V383.75"/><path class="cls-4" d="M31.11,54c7.94.09,15.15-4.25,24.89,3.13-7.31-9.43-4.64-17-4.83-21.77"/><path class="cls-4" d="M44.87,48.32C56.14,37.14,74.12,35.39,74.12,35.39"/><path class="cls-4" d="M44.87,48.32c-12.24,11-13.76,27.5-13.76,27.5"/><path class="cls-4" d="M51.22,380.18c.09-7.46-4.66-14,3.19-23.19-10,6.87-18.06,4.36-23.16,4.55"/><path class="cls-4" d="M74.77,380.18S56.59,379,44.87,367.46h0C33,356.86,31.11,340,31.11,340"/><path class="cls-4" d="M998,35.39c-.09,7.46,4.19,13.47-3.66,22.63,10-6.87,18.61-3.59,23.72-3.78"/><path class="cls-4" d="M1004.32,48.32c11.89,10.6,13.76,27.5,13.76,27.5"/><path class="cls-4" d="M1004.32,48.32c-11.72-11.5-29.26-12.93-29.26-12.93"/><path class="cls-4" d="M1018.08,361.45c-7.92.13-14.28,3.72-24-3.66,7.31,9.44,4.21,17.45,4,22.44"/><path class="cls-4" d="M1004.32,367.3c-11.28,11.18-29,12.88-29,12.88"/><path class="cls-4" d="M1004.32,367.3c12.24-11,13.76-27.5,13.76-27.5"/><path class="cls-4" d="M475.83,65.54c-5.16-.07-12.43,2.48-16.61,6.63-2.43-10.55-9.88-16.37-23.33-14.62,3.35-10.83-6.23-21.17-23.89-22.16"/><path class="cls-4" d="M576,65.54c5.15-.07,12.43,2.48,16.61,6.63,2.43-10.55,9.88-16.37,23.33-14.62-3.35-10.83,6.23-21.17,23.89-22.16"/><path class="cls-4" d="M1018.08,189v.24c0,16-5.61,18.28-5.61,18.28s5.61,3.54,5.61,19.22V361.54c-10.5.41-19.51,8.74-20.06,18.64H544.54c-17,0-19.45-13.28-19.45-13.28s-3.77,13.28-20.44,13.28H51.17c-2.22-11.06-8.76-17.43-20.06-18.64V226.27c0-16,5.47-18.28,5.47-18.28s-5.47-3.54-5.47-19.22V54c10.94,0,20.06-9.94,20.06-18.64H414.46c17.52,0,31.72,13.5,31.72,30.15H605.43c0-16.65,14.52-30.15,32.44-30.15H998c.18,9.73,9.16,18,20.06,18.64Z"/><path class="cls-4" d="M564.82,380.18c-17,0-19.44-8.71-19.44-8.71s-3.77,6.88-20.45,6.88c-17,0-19.44-6.88-19.44-6.88s-3.77,8.71-20.45,8.71"/><circle class="cls-3" cx="29.66" cy="31.24" r="16.85"/><circle class="cls-3" cx="29.66" cy="383.75" r="16.85"/><circle class="cls-3" cx="1020.23" cy="31.24" r="16.85"/><circle class="cls-3" cx="1020.23" cy="383.75" r="16.85"/><path class="cls-2" d="M27.62,32.45A11,11,0,0,1,30.34,20.2a10.92,10.92,0,0,0-3.9.8A11.05,11.05,0,1,0,38.13,39.32,11,11,0,0,1,27.62,32.45Z"/><path class="cls-2" d="M1027.33,37l5.8-5.64-7.06-.18a12,12,0,0,0-2.29-2.92,12.17,12.17,0,0,0-2.8-2l-.83-7.14-5.23,6.09a6.44,6.44,0,0,0-3.58,1.88c-2.92,3.1-2.07,8.63,1.88,12.36s9.53,4.24,12.44,1.15A6.43,6.43,0,0,0,1027.33,37Zm-10.66-4.87a2.56,2.56,0,0,1-3.31-1.39,2.35,2.35,0,1,1,4.13-2.11A2.56,2.56,0,0,1,1016.67,32.14Zm-.18,3.76c-.61,0,.14-1.89.14-1.89.17-.48,1.65,1.18,1.78,1.68S1017.11,35.88,1016.49,35.9Zm5.3,2.71a2.5,2.5,0,0,1-1.6-3.12,2.71,2.71,0,1,1,1.6,3.12Z"/><line class="cls-5" x1="24.55" y1="47.31" x2="24.55" y2="366.54"/><line class="cls-5" x1="1002.67" y1="29.89" x2="46.51" y2="29.89"/><line class="cls-5" x1="1023.66" y1="367.25" x2="1023.66" y2="48.32"/><line class="cls-5" x1="1002.8" y1="385.66" x2="46.38" y2="385.66"/><circle class="cls-2" cx="1020.25" cy="383.75" r="5.5"/><path class="cls-2" d="M1008.72,383.86a30,30,0,0,1,5.66-1.18,50,50,0,0,1,11.3,0,29.16,29.16,0,0,1,5.65,1.18,29.16,29.16,0,0,1-5.65,1.18,50,50,0,0,1-11.3,0A30,30,0,0,1,1008.72,383.86Z"/><path class="cls-2" d="M1020.14,372.45a29,29,0,0,1,1.17,5.65,49.27,49.27,0,0,1,0,11.3,29.16,29.16,0,0,1-1.18,5.65,28.43,28.43,0,0,1-1.18-5.65,50,50,0,0,1,0-11.3A29.76,29.76,0,0,1,1020.14,372.45Z"/><path class="cls-2" d="M1012.15,375.76a28.63,28.63,0,0,1,4.82,3.16,49.83,49.83,0,0,1,8,8,29.13,29.13,0,0,1,3.16,4.83,29.13,29.13,0,0,1-4.83-3.16,49.83,49.83,0,0,1-8-8A28.63,28.63,0,0,1,1012.15,375.76Z"/><path class="cls-2" d="M1012.26,391.85a29.13,29.13,0,0,1,3.16-4.83,50.44,50.44,0,0,1,3.77-4.22,48.9,48.9,0,0,1,4.22-3.77,29.13,29.13,0,0,1,4.83-3.16,29.13,29.13,0,0,1-3.16,4.83,49.83,49.83,0,0,1-8,8A29.26,29.26,0,0,1,1012.26,391.85Z"/><path class="cls-2" d="M1009.52,388.26a29.94,29.94,0,0,1,4.82-3.18,49.68,49.68,0,0,1,5.13-2.39,47.61,47.61,0,0,1,5.37-1.79,29.44,29.44,0,0,1,5.69-1,28.53,28.53,0,0,1-4.82,3.19,48.84,48.84,0,0,1-10.5,4.17A29.44,29.44,0,0,1,1009.52,388.26Z"/><path class="cls-2" d="M1009.8,379.18a29.58,29.58,0,0,1,5.64,1.21,50.39,50.39,0,0,1,10.34,4.56,29.52,29.52,0,0,1,4.7,3.36,28.93,28.93,0,0,1-5.65-1.2,48.85,48.85,0,0,1-5.3-2,49.86,49.86,0,0,1-5-2.58A28.83,28.83,0,0,1,1009.8,379.18Z"/><path class="cls-2" d="M1015.79,373.25a29.23,29.23,0,0,1,3.31,4.73,49.34,49.34,0,0,1,4.46,10.39,29,29,0,0,1,1.15,5.65,28.79,28.79,0,0,1-3.32-4.72,49.81,49.81,0,0,1-2.52-5.07,48.85,48.85,0,0,1-1.93-5.32A29.13,29.13,0,0,1,1015.79,373.25Z"/><path class="cls-2" d="M1024.44,373.25a29.44,29.44,0,0,1-1,5.69,49.59,49.59,0,0,1-1.8,5.36,46,46,0,0,1-2.39,5.13,28.06,28.06,0,0,1-3.19,4.81,28.47,28.47,0,0,1,1-5.68,47.66,47.66,0,0,1,1.8-5.37,49.68,49.68,0,0,1,2.39-5.13A30.15,30.15,0,0,1,1024.44,373.25Z"/><path class="cls-4" d="M28.37,391.36c-1.45,1.51-4.08,1.33-5.89-.4s-2.08-4.35-.64-5.86,4.09-1.34,5.89.39"/><path class="cls-4" d="M27,379.69c1.41-1.47,4-1.26,5.83.47s2.11,4.32.7,5.8-4,1.26-5.83-.47"/><circle class="cls-2" cx="36.21" cy="376.94" r="2.19"/></g></svg>