<svg id="Vrstva_12" data-name="Vrstva 12" xmlns="http://www.w3.org/2000/svg" viewBox="0 0 552.98 415.88"><defs><style>.cls-1{fill:#f0c893;stroke:#000;stroke-width:1.5px;}.cls-1,.cls-2,.cls-3,.cls-5{stroke-miterlimit:10;}.cls-2,.cls-3,.cls-5{fill:none;stroke:#25211b;}.cls-2{stroke-width:4px;}.cls-3{stroke-width:3px;}.cls-4{fill:#25211b;}.cls-5{stroke-width:2.5px;}.cls-6{fill:#1d1d1b;}</style></defs><title>kartaVestbaM</title><rect class="cls-1" x="69.51" y="-67.67" width="414.03" height="551.49" rx="19.26" transform="translate(484.6 -68.45) rotate(90)"/><line class="cls-2" x1="148.77" y1="14.39" x2="33" y2="14.39"/><polyline class="cls-2" points="418.39 14.39 367.92 14.39 191.87 14.39 148.77 14.39"/><line class="cls-2" x1="524.91" y1="14.39" x2="418.39" y2="14.39"/><line class="cls-2" x1="539.33" y1="383.75" x2="539.33" y2="30.89"/><line class="cls-2" x1="418.39" y1="400.6" x2="522.83" y2="400.6"/><line class="cls-2" x1="148.77" y1="400.6" x2="418.39" y2="400.6"/><line class="cls-2" x1="30.57" y1="400.6" x2="148.77" y2="400.6"/><line class="cls-2" x1="13.71" y1="31.24" x2="13.71" y2="383.75"/><path class="cls-3" d="M32,54c7.94.09,15.15-4.25,24.89,3.13-7.31-9.43-4.64-17-4.83-21.77"/><path class="cls-3" d="M45.78,48.32C57.05,37.14,75,35.39,75,35.39"/><path class="cls-3" d="M45.78,48.32C33.54,59.34,32,75.82,32,75.82"/><path class="cls-3" d="M52.13,380.18c.09-7.46-4.66-14,3.19-23.19-10,6.87-18.06,4.36-23.16,4.55"/><path class="cls-3" d="M75.68,380.18S57.5,379,45.78,367.46h0C33.88,356.86,32,340,32,340"/><path class="cls-3" d="M500.27,35.39c-.09,7.46,4.19,13.47-3.66,22.63,10-6.87,18.61-3.59,23.72-3.78"/><path class="cls-3" d="M506.57,48.32c11.89,10.6,13.76,27.5,13.76,27.5"/><path class="cls-3" d="M506.57,48.32c-11.72-11.5-29.26-12.93-29.26-12.93"/><path class="cls-3" d="M520.33,361.45c-7.92.13-14.28,3.72-24-3.66,7.31,9.44,4.21,17.45,4,22.44"/><path class="cls-3" d="M506.57,367.3c-11.27,11.18-29,12.88-29,12.88"/><path class="cls-3" d="M506.57,367.3c12.24-11,13.76-27.5,13.76-27.5"/><path class="cls-3" d="M232,65.54c-5.15-.07-12.43,2.48-16.6,6.63C213,61.62,205.54,55.8,192.1,57.55c3.34-10.83-6.24-21.17-23.9-22.16"/><path class="cls-3" d="M332.2,65.54c5.16-.07,12.43,2.48,16.61,6.63,2.43-10.55,9.88-16.37,23.33-14.62-3.34-10.83,6.24-21.17,23.9-22.16"/><path class="cls-3" d="M148.77,380.18H52.08c-.72-11.06-16.41-17.43-20.06-18.64V226.27c0-16,1.77-18.28,1.77-18.28S32,204.45,32,188.77V54c3.53,0,20.06-9.94,20.06-18.64h96.69"/><path class="cls-3" d="M418.39,380.18H300.74c-17,0-19.45-13.28-19.45-13.28s-3.76,13.28-20.44,13.28H148.77"/><path class="cls-3" d="M418.39,35.39h81.88c.05,9.73,16.93,18,20.06,18.64V189.27c0,16-1.61,18.28-1.61,18.28s1.61,3.54,1.61,19.22V361.54c-3,.41-19.9,8.79-20.06,18.69l-81.88-.05"/><path class="cls-3" d="M148.77,35.39h21.89c17.52,0,31.72,13.5,31.72,30.15H361.63c0-16.65,14.53-30.15,32.44-30.15h24.32"/><path class="cls-3" d="M321,380.18c-17,0-19.45-8.71-19.45-8.71s-3.77,6.88-20.44,6.88c-17,0-19.45-6.88-19.45-6.88s-3.77,8.71-20.44,8.71"/><circle class="cls-2" cx="30.57" cy="31.24" r="16.85"/><circle class="cls-2" cx="30.57" cy="383.75" r="16.85"/><circle class="cls-2" cx="522.48" cy="31.24" r="16.85"/><circle class="cls-2" cx="522.48" cy="383.75" r="16.85"/><path class="cls-4" d="M28.53,32.45A11,11,0,0,1,31.24,20.2a10.91,10.91,0,0,0-3.89.8A11.05,11.05,0,1,0,39,39.32,11,11,0,0,1,28.53,32.45Z"/><path class="cls-4" d="M529.58,37l5.8-5.64-7.06-.18A12,12,0,0,0,526,28.27a12.17,12.17,0,0,0-2.8-2l-.82-7.14-5.24,6.09a6.47,6.47,0,0,0-3.58,1.88c-2.91,3.1-2.07,8.63,1.88,12.36s9.53,4.24,12.44,1.15A6.43,6.43,0,0,0,529.58,37Zm-10.66-4.87a2.56,2.56,0,0,1-3.31-1.39,2.35,2.35,0,1,1,4.13-2.11A2.56,2.56,0,0,1,518.92,32.14Zm-.17,3.76c-.62,0,.13-1.89.13-1.89.17-.48,1.65,1.18,1.78,1.68S519.36,35.88,518.75,35.9ZM524,38.61a2.49,2.49,0,0,1-1.59-3.12A2.71,2.71,0,1,1,524,38.61Z"/><line class="cls-5" x1="25.46" y1="47.31" x2="25.46" y2="366.54"/><line class="cls-5" x1="148.77" y1="29.89" x2="47.42" y2="29.89"/><line class="cls-5" x1="418.39" y1="29.89" x2="148.77" y2="29.89"/><line class="cls-5" x1="504.92" y1="29.89" x2="418.9" y2="29.89"/><line class="cls-5" x1="525.91" y1="367.25" x2="525.91" y2="48.32"/><line class="cls-5" x1="148.77" y1="385.66" x2="47.29" y2="385.66"/><line class="cls-5" x1="418.39" y1="385.66" x2="148.77" y2="385.66"/><line class="cls-5" x1="505.05" y1="385.66" x2="418.39" y2="385.66"/><circle class="cls-4" cx="522.5" cy="383.75" r="5.5"/><path class="cls-4" d="M511,383.86a29.76,29.76,0,0,1,5.65-1.18,50,50,0,0,1,11.3,0,29.16,29.16,0,0,1,5.65,1.18,29.16,29.16,0,0,1-5.65,1.18,50,50,0,0,1-11.3,0A29.76,29.76,0,0,1,511,383.86Z"/><path class="cls-4" d="M522.39,372.45a29.76,29.76,0,0,1,1.18,5.65,50,50,0,0,1,0,11.3,29.16,29.16,0,0,1-1.18,5.65,28.43,28.43,0,0,1-1.18-5.65,50,50,0,0,1,0-11.3A29.76,29.76,0,0,1,522.39,372.45Z"/><path class="cls-4" d="M514.4,375.76a28.63,28.63,0,0,1,4.82,3.16,49.83,49.83,0,0,1,8,8,29.13,29.13,0,0,1,3.16,4.83,29.13,29.13,0,0,1-4.83-3.16,49.83,49.83,0,0,1-8-8A28.63,28.63,0,0,1,514.4,375.76Z"/><path class="cls-4" d="M514.51,391.85a29.78,29.78,0,0,1,3.16-4.83,50.32,50.32,0,0,1,8-8,29.13,29.13,0,0,1,4.83-3.16,29.13,29.13,0,0,1-3.16,4.83,47.29,47.29,0,0,1-3.77,4.22,50.44,50.44,0,0,1-4.22,3.77A29.78,29.78,0,0,1,514.51,391.85Z"/><path class="cls-4" d="M511.78,388.26a29.42,29.42,0,0,1,4.81-3.18,49.68,49.68,0,0,1,5.13-2.39,47.61,47.61,0,0,1,5.37-1.79,29.44,29.44,0,0,1,5.69-1,28.53,28.53,0,0,1-4.82,3.19,48.73,48.73,0,0,1-5.13,2.39,49.66,49.66,0,0,1-5.37,1.78A29.2,29.2,0,0,1,511.78,388.26Z"/><path class="cls-4" d="M512.05,379.18a29.58,29.58,0,0,1,5.64,1.21,49,49,0,0,1,5.31,2,49.77,49.77,0,0,1,5,2.57,29.44,29.44,0,0,1,4.69,3.36,28.93,28.93,0,0,1-5.65-1.2,49.65,49.65,0,0,1-5.3-2,48.68,48.68,0,0,1-5-2.58A28.9,28.9,0,0,1,512.05,379.18Z"/><path class="cls-4" d="M518,373.25a28.62,28.62,0,0,1,3.31,4.73,49.34,49.34,0,0,1,4.46,10.39A29,29,0,0,1,527,394a28.13,28.13,0,0,1-3.31-4.72,47.9,47.9,0,0,1-2.53-5.07,48.85,48.85,0,0,1-1.93-5.32A29.89,29.89,0,0,1,518,373.25Z"/><path class="cls-4" d="M526.69,373.25a29.44,29.44,0,0,1-1,5.69,49.59,49.59,0,0,1-1.8,5.36,46,46,0,0,1-2.39,5.13,28.06,28.06,0,0,1-3.19,4.81,29.2,29.2,0,0,1,1-5.68,49.64,49.64,0,0,1,4.2-10.5A29.42,29.42,0,0,1,526.69,373.25Z"/><path class="cls-3" d="M29.28,391.36c-1.45,1.51-4.08,1.33-5.89-.4s-2.08-4.35-.64-5.86,4.09-1.34,5.89.39"/><path class="cls-3" d="M27.94,379.69c1.41-1.47,4-1.26,5.82.47s2.12,4.32.71,5.8-4,1.26-5.83-.47"/><circle class="cls-4" cx="37.12" cy="376.94" r="2.19"/><path class="cls-6" d="M210.08,47.69a6.67,6.67,0,0,1-1.27-4.2,6,6,0,0,1,2.12-4.5,7.36,7.36,0,0,1,5.12-1.94A6.31,6.31,0,0,1,221,39.2a8.19,8.19,0,0,1,1.92,5.68q0,3.49-4.31,7.32a.32.32,0,0,0-.13.24.38.38,0,0,0,.17.26,20.65,20.65,0,0,1,1.88,1.56c2,2,3.73,2.93,5.21,2.93a3.63,3.63,0,0,0,3.89-3.85,13,13,0,0,0-2.14-6.12,9.77,9.77,0,0,1-1.56-4.76c0-2.37,1.56-4.15,4.66-5.35a.89.89,0,0,1,.3-.06c.25,0,.38.15.38.44s-.12.3-.36.38a2.46,2.46,0,0,0-1.69,2.51,11.2,11.2,0,0,0,1.86,5.07A9,9,0,0,1,232.36,50q0,3.45-3.2,6.74a7.64,7.64,0,0,1-5.61,2.56,8.44,8.44,0,0,1-6.18-2.48q-2.49-2.49-3.57-2.49a2.56,2.56,0,0,0-1.74.59.68.68,0,0,1-.39.21.38.38,0,0,1-.43-.43c0-.11.08-.23.24-.37q2.88-2.52,4.65-2.52a2.46,2.46,0,0,1,.73.09,1.9,1.9,0,0,0,.43.08.9.9,0,0,0,.63-.27,6,6,0,0,0,2-4.75,7,7,0,0,0-1.7-4.89,4.92,4.92,0,0,0-3.63-1.87,4.12,4.12,0,0,0-3.14,1.29,4,4,0,0,0-1.22,2.85,4.4,4.4,0,0,0,1,2.82,3.29,3.29,0,0,0,2.74,1.27,3.88,3.88,0,0,0,2.64-.8.72.72,0,0,1,.44-.22c.28,0,.41.13.41.39a.58.58,0,0,1-.25.41,5.23,5.23,0,0,1-3.57,1.16A4.2,4.2,0,0,1,210.08,47.69Z"/><path class="cls-6" d="M234.36,51.8a6.63,6.63,0,0,1,3-5.65,9.23,9.23,0,0,0,2.77-3,.39.39,0,0,1,.33-.24.6.6,0,0,1,.41.25,12.41,12.41,0,0,0,4.57,2.89c.2.08.3.18.3.28s-.12.22-.36.36a1.26,1.26,0,0,0-.68,1.16v6.9c0,.67.29,1,.85,1a.68.68,0,0,0,.54-.35c.17-.24.34-.35.5-.35s.27.09.27.29a1,1,0,0,1-.24.45,32,32,0,0,0-1.76,2.83.37.37,0,0,1-.34.26.36.36,0,0,1-.33-.25,1,1,0,0,0-.47-.42,3.44,3.44,0,0,1-1.81-2c0-.09-.08-.13-.14-.13a.4.4,0,0,0-.2.08l-3.39,2.49a1,1,0,0,1-.51.25c-.13,0-.19-.08-.19-.26s-.27-.66-.8-1.16A7.36,7.36,0,0,1,234.36,51.8Zm2.72-1.53a7.42,7.42,0,0,0,1.77,5.2,1.77,1.77,0,0,0,1.1.7,1.17,1.17,0,0,0,.73-.21l.87-.64a.36.36,0,0,0,.16-.31V47.7a.29.29,0,0,0-.18-.26,12,12,0,0,1-2.18-1.52.59.59,0,0,0-.37-.17.44.44,0,0,0-.32.19A7.1,7.1,0,0,0,237.08,50.27Z"/><path class="cls-6" d="M248.05,50.14a6.42,6.42,0,0,1,1.88-4.08,38,38,0,0,1,2.69-2.88.84.84,0,0,1,.52-.27c.14,0,.29.12.45.37A3.11,3.11,0,0,0,255,44.35a6.14,6.14,0,0,0,2.37.76,1,1,0,0,0,.41-.07,1.06,1.06,0,0,1,.34-.06.42.42,0,0,1,.27.09.23.23,0,0,1,.12.19.46.46,0,0,1-.12.25l-2.28,2.73a.41.41,0,0,0-.12.28q0,.13.24.24c1.74.79,2.62,1.79,2.62,3a6.25,6.25,0,0,1-1.88,4,36.64,36.64,0,0,1-2.69,2.89.82.82,0,0,1-.52.26c-.15,0-.31-.12-.46-.36a3.08,3.08,0,0,0-1.37-1.07,6.17,6.17,0,0,0-2.38-.76,1.25,1.25,0,0,0-.4.06.86.86,0,0,1-.34.07.46.46,0,0,1-.29-.09.24.24,0,0,1-.12-.19.43.43,0,0,1,.12-.25l2.29-2.74a.34.34,0,0,0,.11-.26c0-.11-.07-.19-.23-.25C248.92,52.39,248.05,51.43,248.05,50.14Zm9.17-12.76a.51.51,0,0,1-.16.32l-3.65,4a.34.34,0,0,1-.25.15c-.09,0-.15-.07-.2-.22a8,8,0,0,0-3.46-3.94.43.43,0,0,1-.22-.32c0-.19.11-.28.31-.28a9.38,9.38,0,0,1,4.19,1.51,1.27,1.27,0,0,0,.56.19,1.2,1.2,0,0,0,.45-.09,6,6,0,0,0,1.76-1.41.53.53,0,0,1,.35-.2A.28.28,0,0,1,257.22,37.38ZM249.81,48c0,1,.79,1.8,2.37,2.53a1.6,1.6,0,0,0,.68.15.9.9,0,0,0,.67-.38l1.7-2.05a.63.63,0,0,0,.21-.4q0-.19-.33-.27a8.61,8.61,0,0,1-3-1.53,1,1,0,0,0-.59-.23q-.48,0-1.08.72A2.28,2.28,0,0,0,249.81,48Zm1.63,6c0,.12.1.21.32.27a8.47,8.47,0,0,1,3,1.52.94.94,0,0,0,.59.24q.48,0,1.08-.72a2.28,2.28,0,0,0,.6-1.46c0-.93-.79-1.78-2.37-2.54a1.6,1.6,0,0,0-.68-.15.9.9,0,0,0-.67.39l-1.71,2A.61.61,0,0,0,251.44,54Z"/><path class="cls-6" d="M260.81,50.59c0-3.21,1.3-5.37,3.91-6.51a8.88,8.88,0,0,1,3-.89.15.15,0,0,1,.15.1l2.08,5.23a.39.39,0,0,1,0,.18c0,.13-.08.22-.25.29L264,51.26c-.18.07-.26.17-.26.29a.76.76,0,0,0,0,.15,6.6,6.6,0,0,0,.6,1.88c.9,1.68,2,2.52,3.22,2.52a4.62,4.62,0,0,0,1.94-.59.7.7,0,0,1,.29-.1c.2,0,.31.11.31.35s-.09.21-.27.31q-2.16,1.22-4.26,2.63a.83.83,0,0,1-.44.19c-.11,0-.19-.11-.26-.35a1,1,0,0,0-.43-.57Q260.81,55.6,260.81,50.59Zm2.77-1.41a8.93,8.93,0,0,0,.06,1.32c0,.09.05.13.11.13a.45.45,0,0,0,.18,0l2.84-1.13a.29.29,0,0,0,.21-.26.49.49,0,0,0-.05-.18l-1.67-4.2c0-.1-.08-.15-.13-.15H265Q263.58,45.24,263.58,49.18Z"/><path class="cls-6" d="M280.34,44.89c0-1.33,1-2.75,2.88-4.28a1,1,0,0,1,.41-.22q.27,0,.27.3a.5.5,0,0,1-.19.36,2.75,2.75,0,0,0-1.19,2,3,3,0,0,0,1,2,9,9,0,0,1,.84,1c.07.1.14.16.22.16a.37.37,0,0,0,.23-.09l4.1-3a1.11,1.11,0,0,1,.52-.25c.12,0,.19.09.19.27s.26.66.8,1.15a7.43,7.43,0,0,1,2.3,5.67,6.62,6.62,0,0,1-3,5.66,9.46,9.46,0,0,0-2.77,3,.37.37,0,0,1-.35.23.46.46,0,0,1-.38-.25q-1-1.47-4.7-2.91c-.25-.1-.38-.2-.38-.3s.1-.23.29-.39a3.94,3.94,0,0,0,1.51-3.25,6.66,6.66,0,0,0-1.6-4.69A3.25,3.25,0,0,1,280.34,44.89Zm3.78,8.79c0,.09.07.15.23.19a7.21,7.21,0,0,1,3.33,2,.46.46,0,0,0,.35.16.4.4,0,0,0,.33-.19A7,7,0,0,0,290,51.54a7.36,7.36,0,0,0-1.78-5.2c-.43-.47-.79-.7-1.09-.7a1.27,1.27,0,0,0-.74.2l-1.23.91a.38.38,0,0,0-.17.26.54.54,0,0,0,.06.25,6.67,6.67,0,0,1,.7,3,4.83,4.83,0,0,1-1.45,3.18A.42.42,0,0,0,284.12,53.68Z"/><path class="cls-6" d="M294.66,50.59c0-3.21,1.31-5.37,3.91-6.51a8.88,8.88,0,0,1,3-.89.15.15,0,0,1,.15.1l2.08,5.23a.39.39,0,0,1,0,.18c0,.13-.08.22-.25.29l-5.71,2.27c-.17.07-.26.17-.26.29a.76.76,0,0,0,0,.15,6.6,6.6,0,0,0,.6,1.88c.9,1.68,2,2.52,3.23,2.52a4.63,4.63,0,0,0,1.93-.59.75.75,0,0,1,.29-.1c.21,0,.31.11.31.35s-.09.21-.26.31q-2.18,1.22-4.27,2.63a.83.83,0,0,1-.44.19c-.1,0-.19-.11-.25-.35a1,1,0,0,0-.43-.57Q294.65,55.6,294.66,50.59Zm2.77-1.41a8.93,8.93,0,0,0,.06,1.32c0,.09.06.13.11.13a.42.42,0,0,0,.18,0l2.85-1.13a.29.29,0,0,0,.2-.26.45.45,0,0,0,0-.18l-1.67-4.2c0-.1-.09-.15-.14-.15h-.11Q297.43,45.24,297.43,49.18Z"/><path class="cls-6" d="M305.83,50.14a6.4,6.4,0,0,1,1.87-4.08,35.53,35.53,0,0,1,2.7-2.88.8.8,0,0,1,.51-.27c.15,0,.3.12.45.37a3.23,3.23,0,0,0,1.38,1.07,6.19,6.19,0,0,0,2.37.76,1,1,0,0,0,.41-.07,1.06,1.06,0,0,1,.34-.06.45.45,0,0,1,.28.09.23.23,0,0,1,.12.19.46.46,0,0,1-.12.25l-2.29,2.73a.4.4,0,0,0-.11.28c0,.09.07.17.23.24,1.75.79,2.62,1.79,2.62,3a6.23,6.23,0,0,1-1.87,4,36.2,36.2,0,0,1-2.7,2.89.8.8,0,0,1-.52.26c-.15,0-.3-.12-.46-.36a3,3,0,0,0-1.36-1.07,6.21,6.21,0,0,0-2.39-.76,1.14,1.14,0,0,0-.39.06.91.91,0,0,1-.35.07.43.43,0,0,1-.28-.09.24.24,0,0,1-.12-.19.43.43,0,0,1,.12-.25l2.28-2.74a.35.35,0,0,0,.12-.26c0-.11-.08-.19-.24-.25C306.69,52.39,305.83,51.43,305.83,50.14ZM315,37.38a.53.53,0,0,1-.17.32l-3.64,4a.38.38,0,0,1-.26.15c-.08,0-.15-.07-.2-.22a8,8,0,0,0-3.45-3.94.41.41,0,0,1-.22-.32c0-.19.1-.28.3-.28a9.34,9.34,0,0,1,4.19,1.51,1.35,1.35,0,0,0,.57.19,1.12,1.12,0,0,0,.44-.09,6,6,0,0,0,1.76-1.41.56.56,0,0,1,.35-.2C314.89,37.07,315,37.17,315,37.38ZM307.58,48c0,1,.79,1.8,2.38,2.53a1.56,1.56,0,0,0,.67.15.9.9,0,0,0,.67-.38l1.7-2.05a.63.63,0,0,0,.21-.4c0-.13-.11-.22-.32-.27A8.58,8.58,0,0,1,309.84,46a1,1,0,0,0-.59-.23c-.32,0-.68.24-1.07.72A2.24,2.24,0,0,0,307.58,48Zm1.63,6c0,.12.11.21.32.27a8.47,8.47,0,0,1,3,1.52.94.94,0,0,0,.59.24q.48,0,1.08-.72a2.28,2.28,0,0,0,.6-1.46c0-.93-.79-1.78-2.37-2.54a1.56,1.56,0,0,0-.67-.15.9.9,0,0,0-.68.39l-1.71,2A.61.61,0,0,0,309.21,54Z"/><path class="cls-6" d="M318,46c0-.14.12-.28.36-.45a25.76,25.76,0,0,0,6.16-5.93c.17-.24.32-.35.47-.35s.28.09.28.29A.82.82,0,0,1,325,40q-2.05,3-2,4.38c0,.14.07.21.22.21h2.42a.28.28,0,0,1,.32.32v1a.28.28,0,0,1-.32.32h-2.36c-.22,0-.32.11-.32.33V54.7c0,.71.33,1.06,1,1.06q.38,0,1.05-.72a.5.5,0,0,1,.34-.2q.33,0,.33.3a.56.56,0,0,1-.17.34,16.62,16.62,0,0,0-2.24,3.21.3.3,0,0,1-.27.2.51.51,0,0,1-.35-.2,6.15,6.15,0,0,0-3.56-2.21c-.16,0-.25-.09-.25-.21A.29.29,0,0,1,319,56a1.78,1.78,0,0,0,1-1.69V46.49c0-.22-.1-.33-.29-.33h-1.31C318.11,46.16,318,46.1,318,46Z"/><path class="cls-6" d="M327.07,38.84c0-.19.1-.28.3-.28s.73.6,1.51,1.8c.11.17.21.25.32.25s.2-.07.28-.22a5.89,5.89,0,0,1,5.39-3c.37,0,.56.11.56.33s-.19.33-.56.33q-3,0-3,3.72v3.71c0,.12,0,.19.07.19a.24.24,0,0,0,.15-.06l3.32-2.45a1.1,1.1,0,0,1,.53-.25q.18,0,.18.27c0,.27.27.66.8,1.15a7.39,7.39,0,0,1,2.3,5.67,6.64,6.64,0,0,1-3,5.66,9.23,9.23,0,0,0-2.77,3,.38.38,0,0,1-.33.23.56.56,0,0,1-.41-.25,12.55,12.55,0,0,0-4.57-2.88c-.2-.09-.3-.18-.3-.29s.12-.22.36-.36a1.24,1.24,0,0,0,.68-1.15V43.84a6.21,6.21,0,0,0-1.7-4.6A.54.54,0,0,1,327.07,38.84ZM331.9,54.1a.29.29,0,0,0,.18.27,12,12,0,0,1,2.18,1.52.57.57,0,0,0,.36.16.41.41,0,0,0,.33-.19,7.09,7.09,0,0,0,1.58-4.32,7.4,7.4,0,0,0-1.77-5.2,1.72,1.72,0,0,0-1.11-.7,1.13,1.13,0,0,0-.71.19l-.86.64a.4.4,0,0,0-.18.32Z"/><path class="cls-6" d="M341.25,51.8a6.63,6.63,0,0,1,3-5.65,9.23,9.23,0,0,0,2.77-3,.39.39,0,0,1,.33-.24.56.56,0,0,1,.4.25,12.56,12.56,0,0,0,4.58,2.89c.2.08.3.18.3.28s-.12.22-.36.36a1.26,1.26,0,0,0-.68,1.16v6.9c0,.67.29,1,.85,1a.68.68,0,0,0,.54-.35c.17-.24.34-.35.5-.35s.27.09.27.29a1,1,0,0,1-.24.45,32,32,0,0,0-1.76,2.83.37.37,0,0,1-.34.26.36.36,0,0,1-.33-.25,1,1,0,0,0-.47-.42,3.49,3.49,0,0,1-1.82-2c0-.09-.07-.13-.13-.13a.4.4,0,0,0-.2.08l-3.39,2.49a1,1,0,0,1-.52.25c-.12,0-.18-.08-.18-.26s-.27-.66-.8-1.16A7.36,7.36,0,0,1,341.25,51.8ZM344,50.27a7.42,7.42,0,0,0,1.77,5.2,1.77,1.77,0,0,0,1.1.7,1.17,1.17,0,0,0,.73-.21l.87-.64a.36.36,0,0,0,.16-.31V47.7a.29.29,0,0,0-.18-.26,12,12,0,0,1-2.18-1.52.59.59,0,0,0-.37-.17.44.44,0,0,0-.32.19A7.1,7.1,0,0,0,344,50.27Z"/></svg>