<svg id="Vrstva_1" data-name="Vrstva 1" xmlns="http://www.w3.org/2000/svg" viewBox="0 0 654.61 108.56"><defs><style>.cls-1{fill:#ffd872;}</style></defs><title>název zlatá</title><path class="cls-1" d="M201,14.56A12.19,12.19,0,0,0,191.8,11a24.37,24.37,0,0,0-11,3.17q-6.1,3.15-12.32,10.26A138.21,138.21,0,0,0,158.34,37.7q-4.76,7-9.15,14.51a.43.43,0,0,1-.73,0A40.1,40.1,0,0,0,140.52,44a33.06,33.06,0,0,0-10.15-5.47.45.45,0,0,1-.29-.54,32.28,32.28,0,0,1,2.11-5.9.08.08,0,0,1,0,0,39.46,39.46,0,0,1,4.87-6.86,8.68,8.68,0,0,1,6.44-2.78c.59,0,.89-.25.89-.77a.79.79,0,0,0-.89-.89c-1.11-.07-2.63-.11-4.55-.11H128.59c-1.44,0-2.68,0-3.72.11a142.33,142.33,0,0,0-27.42,3.5,83.78,83.78,0,0,0-19.92,7.27A58.78,58.78,0,0,0,63.6,41.59a57,57,0,0,0-9.32,12.1,76.89,76.89,0,0,0-6,13.21,44.12,44.12,0,0,0,1.06,31.69,36.77,36.77,0,0,0,10,13.7,30.08,30.08,0,0,0,15.48,6.89,28.78,28.78,0,0,0,4.22.33,29.49,29.49,0,0,0,9.66-1.61,22.42,22.42,0,0,0,8.1-4.83,17,17,0,0,0,4.77-8.1c.15-.67-.11-1-.78-1-.44,0-.7.18-.77.55a16,16,0,0,1-7.88,10A26.56,26.56,0,0,1,79,117.84c-.67,0-1.33,0-2,0s-1.33-.09-2-.17a27.21,27.21,0,0,1-14.21-6.32,33.86,33.86,0,0,1-9-12.66,40.91,40.91,0,0,1-3.17-16,45.4,45.4,0,0,1,2.56-14.88,59.18,59.18,0,0,1,12.1-20.86A64.76,64.76,0,0,1,81.53,32.87,87.33,87.33,0,0,1,103.73,25a115.7,115.7,0,0,1,23.92-2.49c1.85,0,3.68,0,5.49.11,1.26.05,2.52.12,3.76.21a.44.44,0,0,1,.18.83,18.72,18.72,0,0,0-5.22,4.45,49.32,49.32,0,0,0-4.66,6.49,12.64,12.64,0,0,0-1.2,2.53.44.44,0,0,1-.5.28c-1.29-.25-2.57-.45-3.85-.59s-2.85-.22-4.33-.22a33.74,33.74,0,0,0-11.26,1.89,21.08,21.08,0,0,0-8.94,5.88,16.79,16.79,0,0,0-4,10.33,13.24,13.24,0,0,0,3.33,9.87,26.17,26.17,0,0,0,9.87,6.83,56.2,56.2,0,0,0,13,3.65.44.44,0,0,1,.37.51,102.53,102.53,0,0,1-2.43,11.71A46.3,46.3,0,0,1,112.94,98a23.44,23.44,0,0,1-7,7.77.94.94,0,0,0-.44.77c0,.45.29.67.88.67q4.33.23,9.27-3.16a57.35,57.35,0,0,0,10.16-9.27,151.07,151.07,0,0,0,10.32-13.1c.82-1,1.59-2.09,2.33-3.16s1.41-2.06,2.11-3.12a.46.46,0,0,1,.31-.19,91.42,91.42,0,0,0,13.57-3v1.22q0,8.11-2.56,11.77a12.81,12.81,0,0,1-5.66,4.88,10.55,10.55,0,0,1-2.11.62,11.45,11.45,0,0,1-1.88.16,8,8,0,0,1-2.89-.44,6.41,6.41,0,0,1-1.22-.56.56.56,0,0,0-.67-.5.55.55,0,0,0-.55.61v.23c.15.51.72,1,1.72,1.38a9.5,9.5,0,0,0,3.61.61,13.48,13.48,0,0,0,5.94-1.55A12.78,12.78,0,0,0,153.51,85q2.22-4.11,2.22-11.55V72.1a.44.44,0,0,1,.31-.42,98.83,98.83,0,0,0,14.62-6c1.29-.65,2.52-1.34,3.73-2.05a.44.44,0,0,0,.09-.69l-.71-.75a.44.44,0,0,0-.55-.07,79,79,0,0,1-17.08,8,.44.44,0,0,1-.58-.37A35.18,35.18,0,0,0,154.34,64a37.56,37.56,0,0,0-2.27-5.82.46.46,0,0,1,0-.44q5.49-8.32,11.19-16.21a121,121,0,0,1,11.65-14,56.55,56.55,0,0,1,12-9.66Q192.25,15,195.8,15a6.25,6.25,0,0,1,5.11,2.16,9,9,0,0,1,1.77,5.83,25.64,25.64,0,0,1-2.38,9.82A55,55,0,0,1,193,44.7,69.21,69.21,0,0,1,185,53.13a.44.44,0,0,0,0,.63l.93,1a.45.45,0,0,0,.63,0q8.91-8,13.07-15.42,4.83-8.65,4.83-15.1Q204.46,18.17,201,14.56Zm-93,55.5a21.26,21.26,0,0,1-8.1-6.38,13.15,13.15,0,0,1-2.56-9,16.47,16.47,0,0,1,3.56-9.61,18,18,0,0,1,7.93-5.43,29.66,29.66,0,0,1,10-1.73,31.21,31.21,0,0,1,6.05.57.44.44,0,0,1,.33.58,45.43,45.43,0,0,0-1.5,5.51q-.66,3.22-1.22,6.78-.66,4.65-1.17,10.49-.48,5.59-1.32,11.36a.45.45,0,0,1-.52.38A43.57,43.57,0,0,1,108,70.06Zm16.65,22.87a31.08,31.08,0,0,1-7.45,7.62.45.45,0,0,1-.57-.69,33.23,33.23,0,0,0,6.8-10.1,58.24,58.24,0,0,0,3.93-13.49.43.43,0,0,1,.45-.36c1.21,0,2.45.07,3.72,0l3.4-.12a.44.44,0,0,1,.4.67Q129.78,85.93,124.65,92.93Zm12-18.9a.43.43,0,0,1-.34.21c-1.41.14-2.83.22-4.27.26s-2.69,0-4,0a.44.44,0,0,1-.42-.5,84.84,84.84,0,0,0,.66-10.24c0-4,.13-8.16.27-12.37a79.11,79.11,0,0,1,1.13-11.15.45.45,0,0,1,.59-.34A31.35,31.35,0,0,1,140,45.31a43.28,43.28,0,0,1,8,8.47.46.46,0,0,1,0,.49q-3,5-5.79,10T136.64,74Zm17.62-3.61a.47.47,0,0,1-.32.47q-2.94.93-5.93,1.56c-1.77.37-3.56.72-5.35,1a.45.45,0,0,1-.46-.69l8.43-12.89a.45.45,0,0,1,.78.06A31.28,31.28,0,0,1,154.26,70.42Z" transform="translate(-45.84 -10.95)"/><path class="cls-1" d="M190,78.72a1.49,1.49,0,0,0-.72-.28c-.05,0-.07,0-.1.09a73.66,73.66,0,0,1-8,13.67,29.3,29.3,0,0,1-7.1,7,11.15,11.15,0,0,1-5.61,2.06,3.15,3.15,0,0,1-2.94-1.67,8.45,8.45,0,0,1-.94-4.22,27,27,0,0,1,1-6.88,5.94,5.94,0,0,0,3.55,1.11,10.82,10.82,0,0,0,6.44-2.16,18.92,18.92,0,0,0,5-5.39,15,15,0,0,0,2.33-6.21,5.33,5.33,0,0,0,.11-1v-.83a7.16,7.16,0,0,0-1.22-4.27c-.81-1.15-2.26-1.72-4.33-1.72a11.33,11.33,0,0,0-7,2.44A24,24,0,0,0,165,76.39a35.12,35.12,0,0,0-3.5,6.38,36.43,36.43,0,0,0-1.33,4.55,22.45,22.45,0,0,0-.56,5,14.11,14.11,0,0,0,2,7.5q2,3.27,6.77,3.27,4.22,0,10.27-5.77t11.49-18.09C190.28,79.07,190.23,78.9,190,78.72Zm-23.42,6.77c.18-.56.39-1.09.61-1.61a36.89,36.89,0,0,1,3-6.16,33.37,33.37,0,0,1,4.33-5.89q2.32-2.49,4.32-2.49a1.77,1.77,0,0,1,1.73,1,5.87,5.87,0,0,1,.49,2.5,7.93,7.93,0,0,1-.44,2.77,29.1,29.1,0,0,1-3,5.72A19.89,19.89,0,0,1,173.38,86a7.7,7.7,0,0,1-4.78,1.83,5.76,5.76,0,0,1-2.55-.66C166.2,86.62,166.36,86,166.55,85.49Z" transform="translate(-45.84 -10.95)"/><path class="cls-1" d="M194,54.58a1.12,1.12,0,0,1,.89,0c.22.11.29.24.22.39a10.42,10.42,0,0,1-1.83,1.33c-1.15.74-2.21,1.48-3.17,2.22-2.07,1.55-3.9,2.85-5.49,3.88A10.4,10.4,0,0,1,181.35,64c-.51,0-1.09-.41-1.72-1.22s-1.46-1.82-2.49-3c-.38-.44-.87-1-1.5-1.78S174.47,56.6,174,56a5.42,5.42,0,0,1-.67-1,1,1,0,0,1,.89-.34c.59,0,1.7.56,3.33,1.67s3.22,2.29,4.77,3.55q1.78-1,4.11-2.11t4.38-1.94C192.21,55.19,193.27,54.8,194,54.58Z" transform="translate(-45.84 -10.95)"/><path class="cls-1" d="M219.55,78.38a.69.69,0,0,0-.55-.27.6.6,0,0,0-.67.44c-1.18,2.22-2.52,4.68-4,7.38a59.19,59.19,0,0,1-5.05,7.72,22.22,22.22,0,0,1-6.49,5.77,17.13,17.13,0,0,1-5,1.83,23,23,0,0,1-5.61.5,15,15,0,0,0,6.05-3.5,16.13,16.13,0,0,0,3.94-6.49,9.93,9.93,0,0,0,.56-2.55c.07-.89.11-1.78.11-2.67a34.05,34.05,0,0,0-.72-7q-.72-3.43-1.39-6.11c-.07-.36-.13-.72-.17-1s0-.65,0-.94a6.14,6.14,0,0,1,1.66-4.55,3.58,3.58,0,0,1,3.67-1.11,1.53,1.53,0,0,0,1-.12.7.7,0,0,0,.44-.66c0-.45-.48-.89-1.44-1.33a7.31,7.31,0,0,0-8,1.66,23.84,23.84,0,0,0-4.61,5.83c-1.4,2.4-2.77,4.94-4.1,7.6q-1,2-2.17,4.11l-2.16,3.88a5.88,5.88,0,0,0-2.89,2.84,10,10,0,0,0-1.44,5.27,7.77,7.77,0,0,0,2.61,5.66q2.6,2.55,9.71,2.55a20.41,20.41,0,0,0,10.21-2.44,23.89,23.89,0,0,0,6.88-5.72A50.57,50.57,0,0,0,215,87.26q2.33-4.16,4.55-8.27A.47.47,0,0,0,219.55,78.38ZM184.7,100a4.79,4.79,0,0,1-1.45-3.88,7.92,7.92,0,0,1,.12-1.28,11.31,11.31,0,0,1,.33-1.5,8.91,8.91,0,0,1,1.94-3.44,4.27,4.27,0,0,1,3.28-1.55,3.13,3.13,0,0,1,.49.05c.19,0,.39.1.61.17.15-.29.06-.78-.27-1.44s-1.1-1-2.28-1a3.53,3.53,0,0,0-1,.11l3.33-6C191,78.07,192.06,76,193,74.11a33.55,33.55,0,0,1,3-5,18.68,18.68,0,0,1,3-3,6.14,6.14,0,0,1,3.88-1.67,3.1,3.1,0,0,1,1.56.45,6.3,6.3,0,0,0-4.89,3.27A14.45,14.45,0,0,0,197.91,74c-.08,1.33-.12,3.26-.12,5.77s-.09,5.2-.27,8a28.83,28.83,0,0,1-1.5,7.71,8,8,0,0,1-3.33,4.22,8.63,8.63,0,0,1-4.55,1.44A5.12,5.12,0,0,1,184.7,100Z" transform="translate(-45.84 -10.95)"/><path class="cls-1" d="M218.52,50.48a1.09,1.09,0,0,1,.89-.06c.22.11.3.24.22.39a9.09,9.09,0,0,1-1.83,1.33c-1.15.74-2.2,1.48-3.16,2.22q-3.1,2.32-5.49,3.89a10.5,10.5,0,0,1-3.28,1.66c-.52,0-1.09-.41-1.72-1.22s-1.46-1.81-2.5-3l-1.5-1.77c-.63-.74-1.16-1.43-1.61-2.06a5.29,5.29,0,0,1-.66-1,1,1,0,0,1,.89-.33c.59,0,1.7.55,3.33,1.66s3.22,2.29,4.77,3.55c1.18-.66,2.55-1.37,4.11-2.11s3-1.38,4.38-1.94S217.78,50.7,218.52,50.48Z" transform="translate(-45.84 -10.95)"/><path class="cls-1" d="M217.11,102.42a3.92,3.92,0,0,1-3.67-1.89,8.61,8.61,0,0,1-1.11-4.44,17.53,17.53,0,0,1,1.45-6.88q2.33-6.1,4.38-10.55t4.16-8.55h-3c-.3,0-.45-.14-.45-.44a1.36,1.36,0,0,1,.34-.78,1,1,0,0,1,.77-.44h3.22l8-16c1.26-.3,2.61-.65,4.06-1.06A29.64,29.64,0,0,0,239.2,50q-1.78,3-4.89,7.83T228,68.45h7.88a.39.39,0,0,1,.44.44,1.35,1.35,0,0,1-.33.78.94.94,0,0,1-.78.44H227a116.54,116.54,0,0,0-6.16,12.66,53.19,53.19,0,0,0-3.61,12.32,3.61,3.61,0,0,0-.11.94v.84c0,2,.66,3,2,3a5.14,5.14,0,0,0,2.77-1,20.3,20.3,0,0,0,3-2.5A41.39,41.39,0,0,0,231,88.43c1.74-2.89,3.39-5.8,4.87-8.76.15-.15.22-.23.29-.23.52,0,.78.3.78.89-.08,0-.28.33-.61,1a10.74,10.74,0,0,1-.61,1.11q-2,3.89-4.11,7.43a39.45,39.45,0,0,1-5.11,6.77,36,36,0,0,1-4.22,3.78A8.41,8.41,0,0,1,217.11,102.42Z" transform="translate(-45.84 -10.95)"/><path class="cls-1" d="M241,102.53a3.78,3.78,0,0,1-3.16-1.5,6.22,6.22,0,0,1-1.17-3.94,19.8,19.8,0,0,1,1.28-6.66,75.81,75.81,0,0,1,3-7.16c1.14-2.41,2.16-4.68,3.05-6.83.37-1,.7-2,1-2.77a6.32,6.32,0,0,0,.44-2c0-.74-.33-1.11-1-1.11a3.59,3.59,0,0,0-2.66,1.66,21.74,21.74,0,0,0-2.39,3.72c-.7,1.37-1.28,2.46-1.72,3.28Q236,82.43,234,85.88t-3.94,6.32c0,.08-.07.11-.22.11a.89.89,0,0,1-.55-.33c-.23-.22-.3-.37-.23-.44A64,64,0,0,0,233,85.16c1.23-2.26,2.35-4.43,3.39-6.5q1.11-2.32,2.5-4.83a16.22,16.22,0,0,1,3.27-4.21,6.24,6.24,0,0,1,4.33-1.73,7.24,7.24,0,0,1,2.55.56,2.77,2.77,0,0,1,1.67,2.89,10.44,10.44,0,0,1-.39,2.6q-.39,1.5-1,3.39c-1,2.52-2,5-3.17,7.6s-2.2,5.13-3.16,7.72A15.59,15.59,0,0,0,241.86,98c0,1.7.55,2.55,1.66,2.55s2.63-.93,4.78-2.78a34.24,34.24,0,0,0,6-7.27q2.78-4.38,6.66-11.82a.44.44,0,0,1,.45-.22.74.74,0,0,1,.49.28c.19.18.24.35.17.5a113.15,113.15,0,0,1-10.54,17.37Q246.86,102.53,241,102.53Zm3.11-42.85q-1.11,0-1.11-.33c0-.15.42-.54,1.28-1.17s1.79-1.31,2.83-2l2.33-1.67q1.88-1.44,3.72-2.66a6.21,6.21,0,0,1,2.49-1.22,2.28,2.28,0,0,1,1.39.55,1.65,1.65,0,0,1,.72,1.34c0,.37-.61.94-1.83,1.72s-2.68,1.59-4.38,2.44-3.26,1.57-4.67,2.16A9.41,9.41,0,0,1,244.08,59.68Z" transform="translate(-45.84 -10.95)"/><path class="cls-1" d="M267.94,102.53c-3.1,0-4.66-1.74-4.66-5.22a18.07,18.07,0,0,1,.78-4.77,35.06,35.06,0,0,1,2.44-6.11c.59-1.33,1.41-2.94,2.44-4.83s2-3.75,2.83-5.6a11.48,11.48,0,0,0,1.28-4.44c0-1.11-.59-1.67-1.78-1.67a6.81,6.81,0,0,0-2,.39c-.82.26-1.93.58-3.33.94-.6,1.49-1.54,3.54-2.84,6.17s-2.71,5.31-4.27,8-3,5.11-4.44,7.11a.45.45,0,0,1-.33.11,1.72,1.72,0,0,1-.61-.17c-.26-.11-.35-.2-.28-.28q1.77-2.55,3.66-5.93t3.61-6.72c1.15-2.22,2.11-4.12,2.89-5.72A25.42,25.42,0,0,0,264.61,71,4.51,4.51,0,0,1,262,68.39a10,10,0,0,1-.94-4.16A5.69,5.69,0,0,1,262,61a3,3,0,0,1,2.66-1.33,1.83,1.83,0,0,1,1.83,1.39,9.49,9.49,0,0,1,.5,3.27,22,22,0,0,1-.55,4.89c1.63-.3,3-.5,4.11-.61s2.07-.17,2.88-.17c2.44,0,3.67,1.18,3.67,3.55a18.13,18.13,0,0,1-1.23,5.72c-.81,2.33-1.85,5-3.1,8q-3.78,9-3.78,12.65c0,1.48.48,2.22,1.45,2.22q1.77,0,5-2.89a32.94,32.94,0,0,0,5.94-7.27Q284,86.1,288,78.66a.36.36,0,0,1,.34-.22.84.84,0,0,1,.61.28c.18.18.24.35.16.5-4.07,7.69-6.75,12.86-10.65,17.42C275.27,100.41,271.94,102.53,267.94,102.53Z" transform="translate(-45.84 -10.95)"/><path class="cls-1" d="M307.46,102.53q-4.66,0-4.66-5.22a18,18,0,0,1,.77-4.77A35.06,35.06,0,0,1,306,86.43c.6-1.26,1.39-2.75,2.39-4.49s1.91-3.46,2.72-5.17a10.21,10.21,0,0,0,1.22-4c0-1-.52-1.44-1.55-1.44q-2.12,0-4.39,2.27a33.23,33.23,0,0,0-4.49,5.83q-2.22,3.56-4.22,7.44t-3.44,7.27c-1,2.25-1.67,4-2.11,5.16a3.38,3.38,0,0,1-1.89,2.11,7.69,7.69,0,0,1-2.61.44,7.67,7.67,0,0,0-2.6.44c1-2.36,1.88-4.29,2.55-5.77s1.37-3,2.11-4.49,1.62-3.57,2.66-6.16c.59-1.34,1.26-2.87,2-4.61s1.39-3.44,1.94-5.11a13.11,13.11,0,0,0,.83-3.94c0-1.11-.37-1.66-1.11-1.66a3.61,3.61,0,0,0-2.66,1.66A22.37,22.37,0,0,0,291,75.94c-.7,1.37-1.27,2.46-1.72,3.28-1.11,2.14-2.27,4.24-3.41,6.3a58.1,58.1,0,0,1-3.69,6H282a1.56,1.56,0,0,1-.72-.22c-.26-.15-.35-.26-.28-.34,1.26-2,2.46-4,3.61-6s2.2-4,3.16-6c.81-1.55,1.7-3.2,2.67-4.93a18,18,0,0,1,3.32-4.39,6.18,6.18,0,0,1,4.33-1.78,7.33,7.33,0,0,1,2.56.56c1,.44,1.55,1.44,1.55,3a13,13,0,0,1-.44,3c-.3,1.19-.71,2.52-1.22,4a42.41,42.41,0,0,1,6.1-7q3.22-2.94,5.88-2.94c2.82,0,4.22,1.33,4.22,4a16.61,16.61,0,0,1-1.44,6c-.3.81-.83,2.09-1.61,3.83s-1.55,3.66-2.33,5.77-1.46,4.13-2.06,6a17,17,0,0,0-.88,4.77c0,1.34.4,2,1.22,2a4.57,4.57,0,0,0,2.05-.72,16.91,16.91,0,0,0,3-2.39,34.61,34.61,0,0,0,6.05-7.32q2.84-4.44,6.72-11.88a.19.19,0,0,1,.22-.22,1,1,0,0,1,.67.33c.22.22.26.41.11.56q-4,7.77-7.27,12.93a31.55,31.55,0,0,1-6.55,7.77A11.41,11.41,0,0,1,307.46,102.53Z" transform="translate(-45.84 -10.95)"/><path class="cls-1" d="M328.1,102.53c-2.51,0-4.23-.71-5.16-2.11a9.36,9.36,0,0,1-1.39-5.22,22.73,22.73,0,0,1,1.11-6.77,46.14,46.14,0,0,1,2.11-5.66,26.28,26.28,0,0,1,9.94-11.38,24.77,24.77,0,0,1,13.15-3.94h1.83a7.9,7.9,0,0,1,1.83.22c1.48.22,2.22.41,2.22.56s-.53.29-1.61.44a18.71,18.71,0,0,1-2.38.22A17,17,0,0,0,340,71.78a26.84,26.84,0,0,0-7.27,7.33,39.22,39.22,0,0,0-4.61,9,24.53,24.53,0,0,0-1.61,7.94,7.2,7.2,0,0,0,.72,3.44,2.32,2.32,0,0,0,2.17,1.33c1,0,2.22-.7,3.55-2.11a31.52,31.52,0,0,0,3.88-5.16q1.89-3,3.44-6t2.33-4.5l4.78-10c1.25-.29,2.53-.65,3.83-1A38.1,38.1,0,0,0,355,70.67c-1.26,2.15-2.47,4.4-3.61,6.77s-2.32,4.7-3.5,7a52.32,52.32,0,0,0-2.61,6A18,18,0,0,0,344,96.64v.45A9.3,9.3,0,0,0,344.2,99a1.16,1.16,0,0,0,1.22,1,5.63,5.63,0,0,0,3.11-1.49c1.25-1,2.14-1.76,2.66-2.28a41,41,0,0,0,6.16-7.88q2.61-4.34,4.83-8.77c.15-.15.26-.22.33-.22.59,0,.82.3.67.89-.67,1.33-1,2-1.11,2.11-1.41,2.59-2.81,5.07-4.22,7.43a43.2,43.2,0,0,1-5,6.77,47.75,47.75,0,0,1-4.33,3.78,8.32,8.32,0,0,1-5.11,2,3.55,3.55,0,0,1-3.44-2,9.36,9.36,0,0,1-1-4.38,16.25,16.25,0,0,1,.28-3,24.31,24.31,0,0,1,.61-2.61,26.69,26.69,0,0,1-2.72,4.88,27.45,27.45,0,0,1-4.33,5A7.08,7.08,0,0,1,328.1,102.53Z" transform="translate(-45.84 -10.95)"/><path class="cls-1" d="M400.47,102.53q-4.44,0-6.05-3.17A16.11,16.11,0,0,1,392.81,92a35.18,35.18,0,0,1,.61-6.44,49.42,49.42,0,0,1,1.39-5.66,14.87,14.87,0,0,0,4.61-1,43.94,43.94,0,0,0,6.6-2.66A6.12,6.12,0,0,0,408.74,74a4.65,4.65,0,0,0,.83-2.44,2.55,2.55,0,0,0-.61-1.72,2.25,2.25,0,0,0-1.83-.72,6.25,6.25,0,0,0-3.22,1.11A32.58,32.58,0,0,0,399,74.11a51.7,51.7,0,0,0-5.66,6.22,39.63,39.63,0,0,0-4.66,7.54L385.38,99a3.53,3.53,0,0,1-1.45,2.22,4,4,0,0,1-2.05.39,6.37,6.37,0,0,0-2.39.39q2.34-7.65,5-16.26t5.77-17.37q3.11-8.78,6.83-16.82A86.43,86.43,0,0,1,405.47,37a25.22,25.22,0,0,1,5.82-5.89,9.71,9.71,0,0,1,5.28-2,3.63,3.63,0,0,1,2.83,1.16,5.08,5.08,0,0,1,1.05,3.5,15.84,15.84,0,0,1-.78,4.38A26.65,26.65,0,0,1,417,44a83.07,83.07,0,0,1-5.27,8.21q-3.06,4.23-6.33,8a82.57,82.57,0,0,1-6.21,6.49,23.84,23.84,0,0,1-4.94,3.72c-.15.37-.45,1.18-.89,2.44s-.91,2.66-1.39,4.22-.94,3-1.39,4.44a53.49,53.49,0,0,1,4.61-5.72,41.61,41.61,0,0,1,5.38-4.94,23.8,23.8,0,0,1,5.17-3.16,10.71,10.71,0,0,1,4.05-1A4.44,4.44,0,0,1,413.18,68a4,4,0,0,1,1.17,2.88,7,7,0,0,1-1.5,4,11.27,11.27,0,0,1-4.72,3.55,20.21,20.21,0,0,1-8.21,1.44,65.36,65.36,0,0,0-1.5,6.39,33.35,33.35,0,0,0-.61,6.16A14.87,14.87,0,0,0,398.7,98c.59,1.48,1.51,2.22,2.77,2.22s2.85-.82,4.77-2.45a37.1,37.1,0,0,0,6.55-8.32q3.33-5.45,6.11-10.88c.15-.15.26-.22.33-.22a1.16,1.16,0,0,1,.72.33c.26.22.32.41.17.56a153.24,153.24,0,0,1-10.93,17.42Q404.69,102.54,400.47,102.53Zm-5.55-34.41a34.08,34.08,0,0,0,6.94-6.05,91.89,91.89,0,0,0,7.49-9.38,79.42,79.42,0,0,0,6-9.88,28.45,28.45,0,0,0,2-5.16,15.42,15.42,0,0,0,.61-3.94c0-2.07-.59-3.11-1.78-3.11-.88,0-2,.66-3.38,2a29.41,29.41,0,0,0-4.61,6.55q-2.1,3.76-4.27,8.27c-1.44,3-2.8,5.92-4.05,8.76s-2.33,5.35-3.22,7.5S395.22,67.3,394.92,68.12Z" transform="translate(-45.84 -10.95)"/><path class="cls-1" d="M479.28,102.53c-2.52,0-4.24-.71-5.16-2.11a9.28,9.28,0,0,1-1.39-5.22,22.73,22.73,0,0,1,1.11-6.77A44.55,44.55,0,0,1,476,82.77a26.26,26.26,0,0,1,9.93-11.38A24.81,24.81,0,0,1,499,67.45h1.83a7.9,7.9,0,0,1,1.83.22c1.48.22,2.22.41,2.22.56s-.54.29-1.61.44a18.83,18.83,0,0,1-2.39.22,17,17,0,0,0-9.71,2.89,27,27,0,0,0-7.27,7.33,39.61,39.61,0,0,0-4.61,9,24.8,24.8,0,0,0-1.61,7.94,7.08,7.08,0,0,0,.73,3.44,2.31,2.31,0,0,0,2.16,1.33c1,0,2.22-.7,3.55-2.11a31.54,31.54,0,0,0,3.89-5.16q1.88-3,3.44-6t2.33-4.5l4.77-10c1.26-.29,2.54-.65,3.83-1a37.16,37.16,0,0,0,3.72-1.39c-1.26,2.15-2.46,4.4-3.61,6.77s-2.31,4.7-3.49,7a52.32,52.32,0,0,0-2.61,6,18.07,18.07,0,0,0-1.28,6.21v.45a9.3,9.3,0,0,0,.22,1.94,1.16,1.16,0,0,0,1.22,1,5.6,5.6,0,0,0,3.11-1.49,34.35,34.35,0,0,0,2.67-2.28,41.39,41.39,0,0,0,6.16-7.88q2.6-4.34,4.82-8.77c.15-.15.26-.22.34-.22.59,0,.81.3.66.89a22.44,22.44,0,0,1-1.11,2.11c-1.4,2.59-2.81,5.07-4.21,7.43a43.27,43.27,0,0,1-5,6.77,46.42,46.42,0,0,1-4.33,3.78,8.28,8.28,0,0,1-5.1,2,3.56,3.56,0,0,1-3.45-2,9.48,9.48,0,0,1-1-4.38,17.13,17.13,0,0,1,.27-3c.19-1,.39-1.87.61-2.61a26.1,26.1,0,0,1-2.72,4.88,27.41,27.41,0,0,1-4.32,5A7.12,7.12,0,0,1,479.28,102.53Z" transform="translate(-45.84 -10.95)"/><path class="cls-1" d="M527.34,102.53q-4.67,0-4.66-5.22,0-4.34,3.11-10.88c.66-1.26,1.49-2.75,2.49-4.49s1.89-3.44,2.67-5.11a10.23,10.23,0,0,0,1.16-3.94,1.37,1.37,0,0,0-1.55-1.55c-1.33,0-2.78.76-4.33,2.27a33.84,33.84,0,0,0-4.61,5.77,76.51,76.51,0,0,0-4.22,7.38c-1.29,2.6-2.4,5-3.33,7.16s-1.57,3.87-1.94,5a3.08,3.08,0,0,1-1.39,2.22,4.27,4.27,0,0,1-2.1.39,6.34,6.34,0,0,0-2.39.39q2.33-7.65,5-16.26T517,68.34q3.11-8.78,6.82-16.82A87.12,87.12,0,0,1,532.22,37a25.43,25.43,0,0,1,5.83-5.89,9.71,9.71,0,0,1,5.27-2,3.6,3.6,0,0,1,2.83,1.16,5,5,0,0,1,1.06,3.5,15.84,15.84,0,0,1-.78,4.38A27.63,27.63,0,0,1,543.77,44a81.45,81.45,0,0,1-5.28,8.21q-3,4.23-6.32,8A84.43,84.43,0,0,1,526,66.73,23.58,23.58,0,0,1,521,70.45c-.22.52-.63,1.63-1.22,3.33s-1.2,3.61-1.83,5.71-1.24,4.13-1.83,6.05a66.63,66.63,0,0,1,4.94-7.93,37.65,37.65,0,0,1,5.83-6.55c2-1.74,3.81-2.61,5.43-2.61q4.11,0,4.11,3.66a17.83,17.83,0,0,1-1.22,5.66c-.81,2.3-1.85,5-3.11,8a75,75,0,0,0-2.94,7.82,18.58,18.58,0,0,0-.94,4.94c0,1.41.48,2.11,1.44,2.11s2.7-1,5-2.89a34.24,34.24,0,0,0,6-7.27q2.77-4.38,6.66-11.93c.15-.15.26-.22.33-.22a1.16,1.16,0,0,1,.72.33c.26.22.32.41.17.56q-4.11,7.65-7.38,12.87a32,32,0,0,1-6.49,7.83A11.33,11.33,0,0,1,527.34,102.53Zm-5.66-34.41a34.35,34.35,0,0,0,6.94-6.05,91.89,91.89,0,0,0,7.49-9.38,78.08,78.08,0,0,0,6-9.88,28.57,28.57,0,0,0,2.06-5.16,15.87,15.87,0,0,0,.61-3.94c0-2.07-.6-3.11-1.78-3.11-.89,0-2,.66-3.39,2a29.44,29.44,0,0,0-4.6,6.55q-2.12,3.76-4.28,8.27c-1.44,3-2.79,5.92-4.05,8.76s-2.33,5.35-3.22,7.5S522,67.3,521.68,68.12Z" transform="translate(-45.84 -10.95)"/><path class="cls-1" d="M548.43,102.53c-2.44,0-4.13-.69-5-2.06a8.77,8.77,0,0,1-1.39-5,23.2,23.2,0,0,1,1.11-6.82,50.56,50.56,0,0,1,2.11-5.83,29.59,29.59,0,0,1,7.55-10.94q4.54-3.93,8.32-3.94,3.23,0,4.39,1.89a8.78,8.78,0,0,1,1.16,4.66,21.09,21.09,0,0,1-.94,6,33.76,33.76,0,0,1-2.06,5.39c-.88,1.85-1.81,3.59-2.77,5.21a40.87,40.87,0,0,1-3,4.44,3.51,3.51,0,0,0,2.44.89,6.34,6.34,0,0,0,4.39-2.11,28,28,0,0,0,4.11-5.21c1.29-2.08,2.44-4.07,3.44-6s1.75-3.36,2.27-4.33q.22-.33.45-.33c.14,0,.29.13.44.39a.82.82,0,0,1,0,.83c-1.18,2.52-2.65,5.33-4.38,8.44a31.48,31.48,0,0,1-5.83,7.66,10.17,10.17,0,0,1-2.55,1.77,5.49,5.49,0,0,1-2.22.56,4.54,4.54,0,0,1-3.33-1.45,19.9,19.9,0,0,1-4.33,4.33A7.57,7.57,0,0,1,548.43,102.53Zm1.33-1.67a4.73,4.73,0,0,0,2.89-1.5,25.67,25.67,0,0,0,3.44-3.94A9.08,9.08,0,0,1,554.87,91,17.07,17.07,0,0,1,555,89a8.17,8.17,0,0,1,.55-2.16,8.32,8.32,0,0,1,1.89-3.28,3.27,3.27,0,0,1,2.22-1,1.85,1.85,0,0,1,1.61.94,3.77,3.77,0,0,1,.28,2.72,57.22,57.22,0,0,0,2.55-6.72,20.13,20.13,0,0,0,1-5.71,5.71,5.71,0,0,0-.72-3,2.72,2.72,0,0,0-2.5-1.17c-1,0-2.22.65-3.55,1.94a29.48,29.48,0,0,0-4.06,5.11,57.52,57.52,0,0,0-3.77,6.82,52.23,52.23,0,0,0-2.77,7.16,21.29,21.29,0,0,0-1.06,6,5.78,5.78,0,0,0,.72,3.06A2.6,2.6,0,0,0,549.76,100.86Z" transform="translate(-45.84 -10.95)"/><path class="cls-1" d="M614.73,102.53c-3.18,0-5.44-1.1-6.77-3.28a14.1,14.1,0,0,1-2-7.49,21.81,21.81,0,0,1,.56-5,36.59,36.59,0,0,1,1.33-4.56,35.8,35.8,0,0,1,3.5-6.38A24.16,24.16,0,0,1,616.84,70a11.37,11.37,0,0,1,7-2.44c2.07,0,3.52.58,4.33,1.72a7.24,7.24,0,0,1,1.22,4.28v.83a5.23,5.23,0,0,1-.11.94,15,15,0,0,1-2.33,6.22,18.75,18.75,0,0,1-5,5.38,10.83,10.83,0,0,1-6.44,2.17A5.94,5.94,0,0,1,612,88a26.89,26.89,0,0,0-1,6.88,8.48,8.48,0,0,0,.94,4.22,3.14,3.14,0,0,0,2.94,1.66,11.15,11.15,0,0,0,5.61-2,30.38,30.38,0,0,0,7.13-7.17A72.32,72.32,0,0,0,635.39,78c.06-.11.06-.12.21-.12a1.31,1.31,0,0,1,.72.28c.26.19.31.35.17.5Q631,91,625,96.75T614.73,102.53ZM615,87.32a7.65,7.65,0,0,0,4.77-1.83,19.9,19.9,0,0,0,4.22-4.66,29.1,29.1,0,0,0,3-5.72,8.23,8.23,0,0,0,.44-2.78,5.79,5.79,0,0,0-.49-2.49,1.78,1.78,0,0,0-1.73-1.06c-1.33,0-2.77.84-4.32,2.5a33.65,33.65,0,0,0-4.33,5.88,37.27,37.27,0,0,0-3,6.16c-.22.52-.43,1.06-.61,1.61s-.35,1.13-.5,1.72A5.65,5.65,0,0,0,615,87.32Z" transform="translate(-45.84 -10.95)"/><path class="cls-1" d="M654.8,102q-4.66,0-4.66-5.22a18.07,18.07,0,0,1,.78-4.77,34.22,34.22,0,0,1,2.44-6.1c.59-1.26,1.39-2.76,2.38-4.5s1.91-3.46,2.72-5.16a10,10,0,0,0,1.22-4c0-1-.51-1.44-1.55-1.44a6.4,6.4,0,0,0-4.38,2.28,32.67,32.67,0,0,0-4.5,5.82Q647,82.44,645,86.32t-3.44,7.27q-1.44,3.39-2.11,5.16a3.37,3.37,0,0,1-1.88,2.11,7.54,7.54,0,0,1-2.61.45,7.45,7.45,0,0,0-2.61.44c1-2.37,1.89-4.29,2.55-5.77s1.37-3,2.11-4.5,1.63-3.57,2.66-6.16c.6-1.33,1.26-2.86,2-4.6s1.39-3.45,1.94-5.11a13.31,13.31,0,0,0,.84-3.94c0-1.11-.37-1.67-1.11-1.67a3.63,3.63,0,0,0-2.67,1.67,22.33,22.33,0,0,0-2.38,3.72c-.71,1.37-1.28,2.46-1.72,3.27q-1.67,3.23-3.33,6.33a50.17,50.17,0,0,1-3.78,6h-.11a1.45,1.45,0,0,1-.72-.22c-.26-.15-.35-.26-.28-.33q1.89-3,3.61-6t3.16-6c.82-1.55,1.7-3.2,2.67-4.94a17.55,17.55,0,0,1,3.33-4.38,6.1,6.1,0,0,1,4.33-1.78,7.24,7.24,0,0,1,2.55.56c1,.44,1.55,1.44,1.55,3a13,13,0,0,1-.44,3c-.3,1.18-.71,2.52-1.22,4a43.21,43.21,0,0,1,6.1-7q3.22-2.94,5.89-2.94,4.22,0,4.21,4a16.52,16.52,0,0,1-1.44,6c-.29.82-.83,2.1-1.61,3.83s-1.55,3.67-2.33,5.78-1.46,4.12-2,6.05a16.6,16.6,0,0,0-.89,4.77c0,1.33.41,2,1.22,2a4.53,4.53,0,0,0,2.05-.72,17.76,17.76,0,0,0,3.06-2.39,35.29,35.29,0,0,0,6-7.33Q671,85.43,674.89,78c0-.15.07-.23.22-.23a.93.93,0,0,1,.67.34c.22.22.26.4.11.55q-4,7.77-7.27,12.93a31.15,31.15,0,0,1-6.55,7.77A11.39,11.39,0,0,1,654.8,102Z" transform="translate(-45.84 -10.95)"/><path class="cls-1" d="M679.33,102a3.78,3.78,0,0,1-3.16-1.5A6.22,6.22,0,0,1,675,96.53a19.8,19.8,0,0,1,1.28-6.66q1.28-3.54,3-7.16c1.14-2.4,2.16-4.68,3.05-6.82.37-1,.7-2,1-2.78a6.27,6.27,0,0,0,.44-2c0-.73-.33-1.11-1-1.11a3.61,3.61,0,0,0-2.66,1.67,21.74,21.74,0,0,0-2.39,3.72c-.7,1.37-1.28,2.46-1.72,3.27q-1.66,3.23-3.61,6.66c-1.29,2.3-2.61,4.41-3.94,6.33,0,.07-.07.11-.22.11a.89.89,0,0,1-.55-.33c-.23-.22-.3-.37-.23-.45a62.88,62.88,0,0,0,3.94-6.38c1.23-2.26,2.35-4.42,3.39-6.49q1.11-2.34,2.5-4.83a16.27,16.27,0,0,1,3.27-4.22,6.23,6.23,0,0,1,4.33-1.72,7.24,7.24,0,0,1,2.55.56,2.76,2.76,0,0,1,1.67,2.88,10.58,10.58,0,0,1-.39,2.61c-.26,1-.61,2.13-1.05,3.38-1,2.52-2,5.06-3.17,7.61s-2.2,5.12-3.16,7.71a15.63,15.63,0,0,0-1.11,5.33c0,1.7.55,2.55,1.66,2.55s2.63-.92,4.78-2.77a34.49,34.49,0,0,0,6-7.27q2.77-4.38,6.66-11.82a.45.45,0,0,1,.45-.23.78.78,0,0,1,.49.28c.19.19.24.35.17.5A112.66,112.66,0,0,1,689.88,96Q685.21,102,679.33,102Zm3.11-42.84c-.74,0-1.11-.11-1.11-.34s.42-.53,1.27-1.16,1.8-1.32,2.84-2.06l2.33-1.66q1.88-1.44,3.72-2.66A6.14,6.14,0,0,1,694,50a2.3,2.3,0,0,1,1.39.56,1.63,1.63,0,0,1,.72,1.33c0,.37-.61.94-1.83,1.72a48.4,48.4,0,0,1-4.38,2.44c-1.71.86-3.26,1.58-4.67,2.17A9.75,9.75,0,0,1,682.44,59.13Z" transform="translate(-45.84 -10.95)"/><path class="cls-1" d="M456.17,72.24a10,10,0,0,0-6.75.85,12.71,12.71,0,0,0-5.48,5.36l-.5.85L438,89.18h-.11a1.14,1.14,0,0,1-.61-.33c-.26-.22-.35-.37-.27-.44q.89-1.34,2.22-3.83c.88-1.67,1.92-3.61,3.1-5.83a43.57,43.57,0,0,1,4.52-7,14.47,14.47,0,0,1,3.2-3,8.34,8.34,0,0,1,3.9-1.17l.34,0a8.46,8.46,0,0,1,4.55.66,6.23,6.23,0,0,1,3.53,2.87c.47.83,1.29,4,2.56,5a7.7,7.7,0,0,1,3-3.12c1.79-1.17,3.37-.68,4.2.42,1.07,1.4-1.16,6.33-7.1,5.06,0,0-.8,1.29-1.27,2.08-.79,1.33-1.66,2.48-2.52,3.77-1.79,2.66-6.85,9.37-7.81,10.46a14.25,14.25,0,0,1,1.71.78,9.63,9.63,0,0,1,2.35,1.64,24,24,0,0,0,2.41,2.43c1.4,1,2.55.93,4.11.28,2.79-1.15,5.35-5,5.35-5q3.44-5.38,8.1-13.49a.88.88,0,0,1,.67-.45.43.43,0,0,1,.44.28.64.64,0,0,1-.11.61c-.67,1.11-1.59,2.74-2.78,4.89s-2.53,4.4-4.05,6.77a45.07,45.07,0,0,1-4.71,6.38c-1.29,1.39-2.42,2.27-5.73,2.59a9.16,9.16,0,0,1-3.22-.1,8.49,8.49,0,0,1-2.79-1.64,12.44,12.44,0,0,0-3.44-1.76c-.76-.24-1.4-.42-1.4-.42s-1.51,1.16-2.24,1.63c-1.33.85-9.25,4.43-9.22.8a4.49,4.49,0,0,1,1.08-2.74,9.1,9.1,0,0,1,3-2,21.47,21.47,0,0,1,4.32-1.64,13,13,0,0,1,4.39-.27s1-1.16,1.16-1.36c.41-.52.84-1,1.28-1.54.92-1.09,1.82-2.21,2.69-3.33a119.09,119.09,0,0,0,6.91-9.94A3.45,3.45,0,0,1,462,77a26.06,26.06,0,0,0-2.4-2.92A6.64,6.64,0,0,0,456.17,72.24Z" transform="translate(-45.84 -10.95)"/><path class="cls-1" d="M588.32,72.26a10,10,0,0,0-6.75.85,12.66,12.66,0,0,0-5.48,5.36l-.5.85-5.43,9.88H570a1.14,1.14,0,0,1-.61-.33c-.26-.22-.31-.3-.24-.37.6-.89,1.3-2.24,2.19-3.91l3.1-5.82a43.57,43.57,0,0,1,4.52-7,14.47,14.47,0,0,1,3.2-3,8.34,8.34,0,0,1,3.9-1.17l.34,0a8.46,8.46,0,0,1,4.55.66,6.25,6.25,0,0,1,3.53,2.86c.47.84,1.29,4,2.56,5a7.7,7.7,0,0,1,3-3.12c1.79-1.17,3.37-.68,4.2.41,1.07,1.41-1.16,6.34-7.1,5.07,0,0-.8,1.29-1.27,2.08-.79,1.33-1.65,2.48-2.52,3.77-1.79,2.66-6.85,9.37-7.81,10.46a14.25,14.25,0,0,1,1.71.78,9.63,9.63,0,0,1,2.35,1.64A24,24,0,0,0,592,99.56c1.4,1,2.55.92,4.11.28,2.79-1.15,5.35-5,5.35-5q3.43-5.37,8.1-13.48a.88.88,0,0,1,.67-.45.43.43,0,0,1,.44.28.64.64,0,0,1-.11.61q-1,1.67-2.77,4.89t-4.06,6.77A45.07,45.07,0,0,1,599,99.83c-1.29,1.39-2.42,2.27-5.73,2.59a9.41,9.41,0,0,1-3.22-.1,8.51,8.51,0,0,1-2.79-1.65,12.69,12.69,0,0,0-3.44-1.75c-.76-.24-1.4-.42-1.4-.42s-1.5,1.16-2.24,1.63c-1.32.85-9.25,4.43-9.22.8a4.49,4.49,0,0,1,1.08-2.74,9.1,9.1,0,0,1,3-2,20.89,20.89,0,0,1,4.32-1.64,12.48,12.48,0,0,1,4.39-.27s1-1.16,1.16-1.36c.41-.52.84-1,1.28-1.54q1.38-1.65,2.69-3.34a117.3,117.3,0,0,0,6.91-9.93A3.45,3.45,0,0,1,594.1,77a27.3,27.3,0,0,0-2.4-2.93A6.66,6.66,0,0,0,588.32,72.26Z" transform="translate(-45.84 -10.95)"/></svg>