<svg id="Vrstva_1" data-name="Vrstva 1" xmlns="http://www.w3.org/2000/svg" viewBox="0 0 354.89 192"><defs><style>.cls-1{fill:#ffd872;}</style></defs><title>nazevMobil</title><path class="cls-1" d="M164.61,17a12.17,12.17,0,0,0-9.2-3.56,24.18,24.18,0,0,0-11,3.17,43.28,43.28,0,0,0-12.32,10.26A136,136,0,0,0,122,40.11q-4.77,7-9.15,14.51a.43.43,0,0,1-.6.13.4.4,0,0,1-.13-.13,40.13,40.13,0,0,0-7.94-8.21A33,33,0,0,0,94,40.94a.45.45,0,0,1-.29-.54,31.66,31.66,0,0,1,2.11-5.9h0a38.41,38.41,0,0,1,4.87-6.86,8.69,8.69,0,0,1,6.44-2.78c.59,0,.89-.25.89-.77a.79.79,0,0,0-.68-.89h-.21c-1.11-.07-2.63-.11-4.55-.11H92.2c-1.44,0-2.68,0-3.72.11a141.47,141.47,0,0,0-27.42,3.5A83.6,83.6,0,0,0,41.14,34,58.42,58.42,0,0,0,27.21,44a56.51,56.51,0,0,0-9.32,12.1,76.69,76.69,0,0,0-6,13.21A44.09,44.09,0,0,0,13,101a36.79,36.79,0,0,0,10,13.7,30.1,30.1,0,0,0,15.48,6.89,28.94,28.94,0,0,0,13.88-1.28,22.58,22.58,0,0,0,8.1-4.83,17.05,17.05,0,0,0,4.77-8.1c.15-.67-.11-1-.78-1-.44,0-.7.18-.77.55a16,16,0,0,1-7.88,10,26.71,26.71,0,0,1-13.14,3.32h-2a16.86,16.86,0,0,1-2-.17,27.25,27.25,0,0,1-14.21-6.32,33.92,33.92,0,0,1-9-12.66,40.89,40.89,0,0,1-3.17-16,45.15,45.15,0,0,1,2.56-14.88,59.09,59.09,0,0,1,12.1-20.86A64.54,64.54,0,0,1,45.14,35.28a87.15,87.15,0,0,1,22.2-7.87,115.09,115.09,0,0,1,23.92-2.49c1.85,0,3.68,0,5.49.11,1.26,0,2.52.12,3.76.21a.43.43,0,0,1,.41.46.43.43,0,0,1-.23.37,18.58,18.58,0,0,0-5.22,4.45A48,48,0,0,0,90.81,37a11.73,11.73,0,0,0-1.2,2.53.45.45,0,0,1-.5.28c-1.29-.25-2.57-.45-3.85-.59A41.76,41.76,0,0,0,80.93,39,33.45,33.45,0,0,0,69.67,40.9a20.92,20.92,0,0,0-8.94,5.88,16.7,16.7,0,0,0-4,10.33A13.24,13.24,0,0,0,60.06,67a26.07,26.07,0,0,0,9.87,6.83,56.35,56.35,0,0,0,13,3.65.44.44,0,0,1,.37.5h0a104.44,104.44,0,0,1-2.43,11.71,46.81,46.81,0,0,1-4.32,10.73,23.49,23.49,0,0,1-7,7.77.92.92,0,0,0-.44.77c0,.45.29.67.88.67q4.32.22,9.27-3.16a58,58,0,0,0,10.16-9.27,153.09,153.09,0,0,0,10.32-13.1c.82-1,1.59-2.09,2.33-3.16s1.41-2.06,2.11-3.12a.4.4,0,0,1,.31-.19,92.59,92.59,0,0,0,13.57-3v1.22q0,8.1-2.56,11.77a12.84,12.84,0,0,1-5.66,4.88,11.1,11.1,0,0,1-2.11.62,11.83,11.83,0,0,1-1.88.16,8.12,8.12,0,0,1-2.89-.44,6.44,6.44,0,0,1-1.22-.56.56.56,0,0,0-.61-.51h-.06a.55.55,0,0,0-.56.54.17.17,0,0,0,0,.07v.23c.15.51.72,1,1.72,1.38a9.66,9.66,0,0,0,3.61.61,13.7,13.7,0,0,0,5.94-1.55,12.85,12.85,0,0,0,5.33-5.64q2.22-4.11,2.22-11.55V74.51a.42.42,0,0,1,.31-.42,100.45,100.45,0,0,0,14.62-6c1.29-.65,2.52-1.34,3.73-2a.45.45,0,0,0,.16-.61l-.07-.08-.71-.75a.44.44,0,0,0-.55-.07,79.39,79.39,0,0,1-17.08,8,.44.44,0,0,1-.56-.28.29.29,0,0,1,0-.09A36.3,36.3,0,0,0,118,66.41a38.77,38.77,0,0,0-2.27-5.82.43.43,0,0,1,0-.44q5.49-8.32,11.19-16.21a119.13,119.13,0,0,1,11.65-14,56.11,56.11,0,0,1,12-9.66c3.56-1.92,6.52-2.87,8.89-2.87a6.25,6.25,0,0,1,5.11,2.16,9,9,0,0,1,1.77,5.83,25.9,25.9,0,0,1-2.38,9.82,55.22,55.22,0,0,1-7.3,11.89,69.31,69.31,0,0,1-8,8.43.43.43,0,0,0,0,.62h0l.93,1a.45.45,0,0,0,.63,0q8.91-8,13.07-15.42,4.83-8.66,4.83-15.1Q168.07,20.58,164.61,17Zm-93,55.5a21.16,21.16,0,0,1-8.1-6.38,13.15,13.15,0,0,1-2.56-9,16.42,16.42,0,0,1,3.56-9.61,17.87,17.87,0,0,1,7.93-5.43,29.39,29.39,0,0,1,10-1.73,30.77,30.77,0,0,1,6,.57.42.42,0,0,1,.34.51s0,.05,0,.07A43.53,43.53,0,0,0,87.32,47q-.66,3.21-1.22,6.78c-.44,3.1-.83,6.59-1.17,10.49q-.48,5.58-1.32,11.36a.46.46,0,0,1-.51.38h0A43.87,43.87,0,0,1,71.61,72.47ZM88.26,95.34A31.35,31.35,0,0,1,80.81,103a.46.46,0,0,1-.63-.13.45.45,0,0,1,.06-.56A33.4,33.4,0,0,0,87,92.17,58.29,58.29,0,0,0,91,78.68a.42.42,0,0,1,.45-.36c1.21,0,2.45.07,3.72,0l3.4-.12a.43.43,0,0,1,.46.41.48.48,0,0,1-.06.26A194.85,194.85,0,0,1,88.26,95.34Zm12-18.9a.43.43,0,0,1-.34.21c-1.41.14-2.83.22-4.27.26s-2.69,0-4,0a.45.45,0,0,1-.43-.46s0,0,0,0a87.72,87.72,0,0,0,.66-10.24c0-4,.13-8.16.27-12.37a78.6,78.6,0,0,1,1.13-11.15.44.44,0,0,1,.52-.36l.07,0a31.23,31.23,0,0,1,9.73,5.41,43.72,43.72,0,0,1,8,8.47.48.48,0,0,1,0,.49q-3,5-5.79,10t-5.57,9.73Zm17.62-3.61a.47.47,0,0,1-.32.47q-2.94.93-5.93,1.56c-1.77.37-3.56.72-5.35,1a.46.46,0,0,1-.53-.36.42.42,0,0,1,.07-.33l8.43-12.89a.44.44,0,0,1,.62-.12.4.4,0,0,1,.16.18,31.32,31.32,0,0,1,2.84,10.49Z"/><path class="cls-1" d="M153.61,81.13a1.37,1.37,0,0,0-.72-.28s-.07,0-.1.09a74,74,0,0,1-8,13.67,29.32,29.32,0,0,1-7.1,7,11.27,11.27,0,0,1-5.61,2.06,3.15,3.15,0,0,1-2.94-1.67,8.37,8.37,0,0,1-.94-4.22,26.67,26.67,0,0,1,1-6.88A5.94,5.94,0,0,0,132.75,92a10.85,10.85,0,0,0,6.44-2.16,19.17,19.17,0,0,0,5-5.39,15.14,15.14,0,0,0,2.33-6.21,5.67,5.67,0,0,0,.11-1v-.83a7.17,7.17,0,0,0-1.22-4.27c-.81-1.15-2.26-1.72-4.33-1.72a11.26,11.26,0,0,0-7,2.44,23.75,23.75,0,0,0-5.47,5.93,34.39,34.39,0,0,0-3.5,6.38,35.44,35.44,0,0,0-1.33,4.55,22.09,22.09,0,0,0-.56,5,14.07,14.07,0,0,0,2,7.5q2,3.27,6.77,3.27,4.22,0,10.27-5.77t11.49-18.09C153.89,81.48,153.84,81.31,153.61,81.13ZM130.19,87.9c.18-.56.39-1.09.61-1.61a35.79,35.79,0,0,1,3-6.16,32.84,32.84,0,0,1,4.33-5.89q2.31-2.49,4.32-2.49a1.77,1.77,0,0,1,1.73,1,5.94,5.94,0,0,1,.49,2.5,7.92,7.92,0,0,1-.44,2.77,29.42,29.42,0,0,1-3,5.72A20.06,20.06,0,0,1,137,88.41a7.78,7.78,0,0,1-4.78,1.83,5.78,5.78,0,0,1-2.55-.66c.15-.55.31-1.17.5-1.68Z"/><path class="cls-1" d="M157.61,57a1.06,1.06,0,0,1,.89,0c.22.11.29.24.22.39a11.4,11.4,0,0,1-1.83,1.33c-1.15.74-2.21,1.48-3.17,2.22-2.07,1.55-3.9,2.85-5.49,3.88a10.59,10.59,0,0,1-3.27,1.6c-.51,0-1.09-.41-1.72-1.22s-1.46-1.82-2.49-3c-.38-.44-.87-1-1.5-1.78s-1.17-1.4-1.64-2a5.46,5.46,0,0,1-.67-1,1,1,0,0,1,.89-.34c.59,0,1.7.56,3.33,1.67s3.22,2.29,4.77,3.55q1.77-1,4.11-2.11t4.38-1.94A26,26,0,0,1,157.61,57Z"/><path class="cls-1" d="M183.16,80.79a.7.7,0,0,0-.55-.27.59.59,0,0,0-.67.44c-1.18,2.22-2.52,4.68-4,7.38a59.55,59.55,0,0,1-5.05,7.72,22.39,22.39,0,0,1-6.49,5.77,17.47,17.47,0,0,1-5,1.83,23.54,23.54,0,0,1-5.61.5,15.22,15.22,0,0,0,6.05-3.5,16.21,16.21,0,0,0,3.94-6.49,10.21,10.21,0,0,0,.56-2.55c.07-.89.11-1.78.11-2.67a34.22,34.22,0,0,0-.72-7c-.48-2.29-.95-4.33-1.39-6.11-.07-.36-.13-.72-.17-1a7.37,7.37,0,0,1,0-.94,6.08,6.08,0,0,1,1.66-4.55,3.58,3.58,0,0,1,3.67-1.11,1.57,1.57,0,0,0,1-.12.71.71,0,0,0,.44-.66c0-.45-.48-.89-1.44-1.33a7.31,7.31,0,0,0-8,1.66,23.68,23.68,0,0,0-4.61,5.83c-1.4,2.4-2.77,4.94-4.1,7.6q-1,2-2.17,4.11l-2.16,3.88a5.83,5.83,0,0,0-2.89,2.84,10,10,0,0,0-1.44,5.27,7.78,7.78,0,0,0,2.61,5.66q2.59,2.55,9.71,2.55a20.43,20.43,0,0,0,10.21-2.44,24.14,24.14,0,0,0,6.88-5.72,50.92,50.92,0,0,0,5.07-7.7q2.32-4.17,4.55-8.27A.47.47,0,0,0,183.16,80.79Zm-34.85,21.62a4.79,4.79,0,0,1-1.45-3.88,6.85,6.85,0,0,1,.12-1.28,9.55,9.55,0,0,1,.33-1.5,8.77,8.77,0,0,1,1.94-3.44,4.26,4.26,0,0,1,3.28-1.55,2.72,2.72,0,0,1,.49,0,2.26,2.26,0,0,1,.61.17c.15-.29.06-.78-.27-1.44s-1.1-1-2.28-1a3.34,3.34,0,0,0-1,.11l3.33-6c1.2-2.17,2.26-4.24,3.2-6.13a32.46,32.46,0,0,1,3-5,18.51,18.51,0,0,1,3-3,6.12,6.12,0,0,1,3.88-1.67,3.07,3.07,0,0,1,1.56.45,6.29,6.29,0,0,0-4.89,3.27,14.25,14.25,0,0,0-1.64,5.84c-.08,1.33-.12,3.26-.12,5.77s-.09,5.2-.27,8a29,29,0,0,1-1.5,7.71,8,8,0,0,1-3.33,4.22,8.77,8.77,0,0,1-4.55,1.44A5.16,5.16,0,0,1,148.31,102.41Z"/><path class="cls-1" d="M182.13,52.89a1.07,1.07,0,0,1,.89-.06c.22.11.3.24.22.39a9.62,9.62,0,0,1-1.83,1.33c-1.15.74-2.2,1.48-3.16,2.22q-3.1,2.31-5.49,3.89a10.68,10.68,0,0,1-3.28,1.66c-.52,0-1.09-.41-1.72-1.22s-1.46-1.81-2.5-3l-1.5-1.77c-.63-.74-1.16-1.43-1.61-2.06a5.41,5.41,0,0,1-.66-1,1,1,0,0,1,.89-.33c.59,0,1.7.55,3.33,1.66s3.22,2.29,4.77,3.55c1.18-.66,2.55-1.37,4.11-2.11s3-1.38,4.38-1.94S181.39,53.11,182.13,52.89Z"/><path class="cls-1" d="M180.72,104.83a3.93,3.93,0,0,1-3.67-1.89,8.55,8.55,0,0,1-1.11-4.44,17.33,17.33,0,0,1,1.45-6.88q2.33-6.11,4.38-10.55t4.16-8.55h-3c-.3,0-.45-.14-.45-.44a1.26,1.26,0,0,1,.34-.78,1,1,0,0,1,.77-.44h3.22l8-16c1.26-.3,2.61-.65,4.06-1.06a30.71,30.71,0,0,0,3.94-1.39q-1.78,3-4.89,7.83t-6.31,10.62h7.88a.39.39,0,0,1,.44.33v.11a1.4,1.4,0,0,1-.33.78,1,1,0,0,1-.78.44h-8.21a114.63,114.63,0,0,0-6.16,12.66,52.82,52.82,0,0,0-3.61,12.32,3.27,3.27,0,0,0-.11.94v.84c0,2,.66,3,2,3a5.24,5.24,0,0,0,2.77-1,21.16,21.16,0,0,0,3-2.5,41.66,41.66,0,0,0,6.11-7.94c1.74-2.89,3.39-5.8,4.87-8.76.15-.15.22-.23.29-.23.52,0,.78.3.78.89-.08,0-.28.33-.61,1a12,12,0,0,1-.61,1.11q-2,3.89-4.11,7.43a40.08,40.08,0,0,1-5.11,6.77,36.87,36.87,0,0,1-4.22,3.78A8.47,8.47,0,0,1,180.72,104.83Z"/><path class="cls-1" d="M204.61,104.94a3.8,3.8,0,0,1-3.16-1.5,6.2,6.2,0,0,1-1.17-3.94,19.69,19.69,0,0,1,1.28-6.66,73.61,73.61,0,0,1,3-7.16c1.14-2.41,2.16-4.68,3.05-6.83.37-1,.7-2,1-2.77a6.58,6.58,0,0,0,.44-2c0-.74-.33-1.11-1-1.11a3.53,3.53,0,0,0-2.66,1.66A21.62,21.62,0,0,0,203,78.35c-.7,1.37-1.28,2.46-1.72,3.28q-1.68,3.21-3.67,6.66c-1.34,2.3-2.65,4.4-3.94,6.32,0,.08-.07.11-.22.11a.9.9,0,0,1-.55-.33c-.23-.22-.3-.37-.23-.44a66.28,66.28,0,0,0,3.94-6.38c1.23-2.26,2.35-4.43,3.39-6.5q1.11-2.32,2.5-4.83A16,16,0,0,1,205.77,72a6.17,6.17,0,0,1,4.33-1.73,7.26,7.26,0,0,1,2.55.56,2.77,2.77,0,0,1,1.67,2.89,10.42,10.42,0,0,1-.39,2.6c-.26,1-.6,2.13-1,3.39-1,2.52-2,5-3.17,7.6s-2.2,5.13-3.16,7.72a15.56,15.56,0,0,0-1.13,5.35c0,1.7.55,2.55,1.66,2.55s2.63-.93,4.78-2.78a34.89,34.89,0,0,0,6-7.27q2.78-4.38,6.66-11.82a.44.44,0,0,1,.45-.22.71.71,0,0,1,.49.28c.19.18.24.35.17.5A114.68,114.68,0,0,1,215.14,99Q210.46,104.93,204.61,104.94Zm3.11-42.85q-1.11,0-1.11-.33c0-.15.42-.54,1.28-1.17s1.79-1.31,2.83-2l2.33-1.67q1.88-1.44,3.72-2.66A6.11,6.11,0,0,1,219.26,53a2.24,2.24,0,0,1,1.39.55,1.66,1.66,0,0,1,.72,1.34c0,.37-.61.94-1.83,1.72a48.4,48.4,0,0,1-4.38,2.44q-2.55,1.27-4.67,2.16a9.84,9.84,0,0,1-2.8.84Z"/><path class="cls-1" d="M231.55,104.94c-3.1,0-4.66-1.74-4.66-5.22a17.5,17.5,0,0,1,.78-4.77,34.31,34.31,0,0,1,2.44-6.11c.59-1.33,1.41-2.94,2.44-4.83s2-3.75,2.83-5.6A11.53,11.53,0,0,0,236.66,74c0-1.11-.59-1.67-1.78-1.67a6.76,6.76,0,0,0-2,.39c-.82.26-1.93.58-3.33.94-.6,1.49-1.54,3.54-2.84,6.17s-2.71,5.31-4.27,8-3,5.11-4.44,7.11a.44.44,0,0,1-.33.11,1.85,1.85,0,0,1-.61-.17c-.26-.11-.35-.2-.28-.28q1.77-2.55,3.66-5.93t3.61-6.72c1.15-2.22,2.11-4.12,2.89-5.72a26.94,26.94,0,0,0,1.28-2.79,4.51,4.51,0,0,1-2.61-2.61,10,10,0,0,1-.94-4.16,5.67,5.67,0,0,1,.94-3.23,3,3,0,0,1,2.66-1.33,1.82,1.82,0,0,1,1.83,1.39,9.8,9.8,0,0,1,.5,3.27,22.42,22.42,0,0,1-.55,4.89c1.63-.3,3-.5,4.11-.61s2.07-.17,2.88-.17c2.44,0,3.67,1.18,3.67,3.55a18.41,18.41,0,0,1-1.23,5.72c-.81,2.33-1.85,5-3.1,8q-3.78,9-3.78,12.65c0,1.48.48,2.22,1.45,2.22,1.18,0,2.84-1,5-2.89A33.52,33.52,0,0,0,245,92.83q2.61-4.32,6.62-11.76a.34.34,0,0,1,.34-.22.81.81,0,0,1,.61.28c.18.18.24.35.16.5-4.07,7.69-6.75,12.86-10.65,17.42C238.88,102.82,235.55,104.94,231.55,104.94Z"/><path class="cls-1" d="M271.07,104.94q-4.67,0-4.66-5.22a17.88,17.88,0,0,1,.77-4.77,34.27,34.27,0,0,1,2.43-6.11c.6-1.26,1.39-2.75,2.39-4.49s1.91-3.46,2.72-5.17a10.29,10.29,0,0,0,1.22-4c0-1-.52-1.44-1.55-1.44A6.39,6.39,0,0,0,270,76a32.56,32.56,0,0,0-4.49,5.83q-2.22,3.55-4.22,7.44c-1.34,2.58-2.48,5-3.44,7.27s-1.67,4-2.11,5.16a3.41,3.41,0,0,1-1.89,2.11,8,8,0,0,1-2.61.44,7.4,7.4,0,0,0-2.6.44c1-2.36,1.88-4.29,2.55-5.77s1.37-3,2.11-4.49,1.62-3.57,2.66-6.16c.59-1.34,1.26-2.87,2-4.61s1.39-3.44,1.94-5.11a13.08,13.08,0,0,0,.83-3.94c0-1.11-.37-1.66-1.11-1.66A3.59,3.59,0,0,0,257,74.62a21.88,21.88,0,0,0-2.35,3.73c-.7,1.37-1.27,2.46-1.72,3.28-1.11,2.14-2.27,4.24-3.41,6.3a59.59,59.59,0,0,1-3.69,6h-.18a1.64,1.64,0,0,1-.72-.22c-.26-.15-.35-.26-.28-.34q1.89-3,3.61-6t3.16-6c.81-1.55,1.7-3.2,2.67-4.93a17.58,17.58,0,0,1,3.32-4.39,6.16,6.16,0,0,1,4.33-1.78,7.31,7.31,0,0,1,2.56.56c1,.44,1.55,1.44,1.55,3a13.26,13.26,0,0,1-.44,3c-.3,1.19-.71,2.52-1.22,4a41.92,41.92,0,0,1,6.1-7q3.21-2.94,5.88-2.94c2.82,0,4.22,1.33,4.22,4a16.65,16.65,0,0,1-1.44,6c-.3.81-.83,2.09-1.61,3.83s-1.55,3.66-2.33,5.77-1.46,4.13-2.06,6a16.82,16.82,0,0,0-.88,4.77c0,1.34.4,2,1.22,2a4.71,4.71,0,0,0,2.05-.72,17.69,17.69,0,0,0,3-2.39,34.84,34.84,0,0,0,6.05-7.32q2.83-4.44,6.72-11.88a.18.18,0,0,1,.15-.22.09.09,0,0,1,.07,0,1,1,0,0,1,.67.33c.22.22.26.41.11.56q-4,7.77-7.27,12.93a31.69,31.69,0,0,1-6.55,7.77A11.48,11.48,0,0,1,271.07,104.94Z"/><path class="cls-1" d="M291.71,104.94c-2.51,0-4.23-.71-5.16-2.11a9.33,9.33,0,0,1-1.39-5.22,22.53,22.53,0,0,1,1.11-6.77,45.83,45.83,0,0,1,2.11-5.66,26.25,26.25,0,0,1,9.94-11.38,24.64,24.64,0,0,1,13.15-3.94h1.83a7.57,7.57,0,0,1,1.83.22c1.48.22,2.22.41,2.22.56s-.53.29-1.61.44a21.27,21.27,0,0,1-2.38.22,16.92,16.92,0,0,0-9.75,2.89,26.69,26.69,0,0,0-7.27,7.33,39,39,0,0,0-4.61,9,24.27,24.27,0,0,0-1.61,7.94,7.18,7.18,0,0,0,.72,3.44,2.33,2.33,0,0,0,2.17,1.33c1,0,2.22-.7,3.55-2.11A33,33,0,0,0,300.44,96c1.26-2,2.4-4,3.44-6s1.81-3.5,2.33-4.5l4.78-10c1.25-.29,2.53-.65,3.83-1s2.55-.86,3.79-1.38c-1.26,2.15-2.47,4.4-3.61,6.77s-2.32,4.7-3.5,7a49.9,49.9,0,0,0-2.61,6,17.79,17.79,0,0,0-1.28,6.2v.45a8.79,8.79,0,0,0,.2,1.91,1.16,1.16,0,0,0,1.22,1,5.67,5.67,0,0,0,3.11-1.49c1.25-1,2.14-1.76,2.66-2.28A41.93,41.93,0,0,0,321,90.76q2.61-4.35,4.83-8.77c.15-.15.26-.22.33-.22.59,0,.82.3.67.89a21.54,21.54,0,0,1-1.11,2.11c-1.41,2.59-2.81,5.07-4.22,7.43a44.15,44.15,0,0,1-5,6.77,50.29,50.29,0,0,1-4.33,3.78,8.36,8.36,0,0,1-5.11,2,3.56,3.56,0,0,1-3.44-2,9.26,9.26,0,0,1-1-4.38,15.88,15.88,0,0,1,.28-3,23,23,0,0,1,.61-2.61,29.78,29.78,0,0,1-7.05,9.88A7.12,7.12,0,0,1,291.71,104.94Z"/><path class="cls-1" d="M45.46,178.54q-4.44,0-6.05-3.17A15.89,15.89,0,0,1,37.8,168a34.77,34.77,0,0,1,.61-6.44,48.17,48.17,0,0,1,1.39-5.66,14.64,14.64,0,0,0,4.61-1,45.29,45.29,0,0,0,6.6-2.66A6.13,6.13,0,0,0,53.73,150a4.73,4.73,0,0,0,.83-2.44,2.62,2.62,0,0,0-.61-1.72,2.27,2.27,0,0,0-1.83-.72,6.29,6.29,0,0,0-3.22,1.11A31.74,31.74,0,0,0,44,150.12a51.25,51.25,0,0,0-5.66,6.22,39.28,39.28,0,0,0-4.66,7.54L30.37,175a3.55,3.55,0,0,1-1.45,2.22,3.94,3.94,0,0,1-2.05.39,6.45,6.45,0,0,0-2.39.39q2.34-7.65,5-16.26t5.77-17.37q3.11-8.77,6.83-16.82A86.21,86.21,0,0,1,50.46,113a25,25,0,0,1,5.82-5.89,9.75,9.75,0,0,1,5.28-2,3.66,3.66,0,0,1,2.83,1.16,5.12,5.12,0,0,1,1,3.5,16.25,16.25,0,0,1-.78,4.38A26.66,26.66,0,0,1,62,120a84.83,84.83,0,0,1-5.27,8.21q-3.06,4.23-6.33,8a82.77,82.77,0,0,1-6.21,6.49,23.88,23.88,0,0,1-4.94,3.72c-.15.37-.45,1.18-.89,2.44s-.91,2.66-1.39,4.22-.94,3-1.39,4.44a52.67,52.67,0,0,1,4.61-5.72,41.32,41.32,0,0,1,5.38-4.94,23.57,23.57,0,0,1,5.17-3.16,10.88,10.88,0,0,1,4.05-1,4.44,4.44,0,0,1,3.39,1.3,4,4,0,0,1,1.17,2.88,7.08,7.08,0,0,1-1.5,4,11.27,11.27,0,0,1-4.72,3.55,20.09,20.09,0,0,1-8.21,1.44,63.7,63.7,0,0,0-1.5,6.39,32.65,32.65,0,0,0-.61,6.16,14.72,14.72,0,0,0,.89,5.58c.59,1.48,1.51,2.22,2.77,2.22s2.85-.82,4.77-2.45a37.18,37.18,0,0,0,6.55-8.32q3.33-5.44,6.11-10.88c.15-.15.26-.22.33-.22a1.17,1.17,0,0,1,.72.33c.26.22.32.41.17.56a152.34,152.34,0,0,1-10.93,17.42Q49.68,178.55,45.46,178.54Zm-5.55-34.41a34.21,34.21,0,0,0,6.94-6,92.73,92.73,0,0,0,7.49-9.38,80,80,0,0,0,6-9.88,28.85,28.85,0,0,0,2-5.16,15.87,15.87,0,0,0,.61-3.94c0-2.07-.59-3.11-1.78-3.11-.88,0-2,.66-3.38,2a29.34,29.34,0,0,0-4.61,6.55q-2.1,3.77-4.27,8.27c-1.44,3-2.8,5.92-4,8.76s-2.33,5.35-3.22,7.5S40.21,143.31,39.91,144.13Z"/><path class="cls-1" d="M124.27,178.54c-2.52,0-4.24-.71-5.16-2.11a9.23,9.23,0,0,1-1.39-5.22,22.58,22.58,0,0,1,1.11-6.77,44.54,44.54,0,0,1,2.16-5.66,26.22,26.22,0,0,1,9.93-11.38A24.84,24.84,0,0,1,144,143.46h1.83a8.1,8.1,0,0,1,1.83.22c1.48.22,2.22.41,2.22.56s-.54.29-1.61.44a17.55,17.55,0,0,1-2.39.22,17,17,0,0,0-9.71,2.89,26.83,26.83,0,0,0-7.27,7.33,39.25,39.25,0,0,0-4.61,9,24.53,24.53,0,0,0-1.61,7.94,7.07,7.07,0,0,0,.73,3.44,2.3,2.3,0,0,0,2.16,1.33c1,0,2.22-.7,3.55-2.11a31.57,31.57,0,0,0,3.89-5.16q1.88-3,3.44-6l2.33-4.5,4.77-10c1.26-.29,2.54-.65,3.83-1a38.74,38.74,0,0,0,3.72-1.39c-1.26,2.15-2.46,4.4-3.61,6.77s-2.31,4.7-3.49,7a50.6,50.6,0,0,0-2.61,6,17.89,17.89,0,0,0-1.28,6.21v.45a8.49,8.49,0,0,0,.22,1.94,1.15,1.15,0,0,0,1.22,1,5.67,5.67,0,0,0,3.11-1.49,33.84,33.84,0,0,0,2.67-2.28,41.61,41.61,0,0,0,6.16-7.88q2.6-4.33,4.82-8.77c.15-.15.26-.22.34-.22.59,0,.81.3.66.89-.34.72-.71,1.43-1.11,2.11-1.4,2.59-2.81,5.07-4.21,7.43a43.67,43.67,0,0,1-5,6.77,47.06,47.06,0,0,1-4.33,3.78,8.3,8.3,0,0,1-5.1,2,3.56,3.56,0,0,1-3.45-2,9.38,9.38,0,0,1-1-4.38,16.82,16.82,0,0,1,.27-3c.19-1,.39-1.87.61-2.61a26.46,26.46,0,0,1-2.72,4.88,27.88,27.88,0,0,1-4.32,5A7.13,7.13,0,0,1,124.27,178.54Z"/><path class="cls-1" d="M172.33,178.54q-4.68,0-4.66-5.22,0-4.33,3.11-10.88c.66-1.26,1.49-2.75,2.49-4.49s1.89-3.44,2.67-5.11a10.44,10.44,0,0,0,1.16-3.94,1.38,1.38,0,0,0-1.17-1.55,1.21,1.21,0,0,0-.38,0c-1.33,0-2.78.76-4.33,2.27a33.65,33.65,0,0,0-4.61,5.77,73.91,73.91,0,0,0-4.22,7.38c-1.29,2.6-2.4,5-3.33,7.16s-1.57,3.87-1.94,5a3.07,3.07,0,0,1-1.39,2.22,4.24,4.24,0,0,1-2.1.39,6.45,6.45,0,0,0-2.39.39q2.32-7.65,5-16.26T162,144.35q3.1-8.78,6.82-16.82a86.73,86.73,0,0,1,8.4-14.52,25.08,25.08,0,0,1,5.83-5.89,9.71,9.71,0,0,1,5.27-2,3.62,3.62,0,0,1,2.83,1.16,5,5,0,0,1,1.06,3.5,16.25,16.25,0,0,1-.78,4.38,27.82,27.82,0,0,1-2.66,5.85,83.06,83.06,0,0,1-5.28,8.21,97.13,97.13,0,0,1-6.32,8,84.45,84.45,0,0,1-6.17,6.52,23.55,23.55,0,0,1-5,3.72c-.22.52-.63,1.63-1.22,3.33s-1.2,3.61-1.83,5.71-1.24,4.13-1.83,6.05a66.38,66.38,0,0,1,4.94-7.93,37.4,37.4,0,0,1,5.83-6.55q3-2.61,5.43-2.61,4.11,0,4.11,3.66a18,18,0,0,1-1.22,5.66c-.81,2.3-1.85,5-3.11,8a72.87,72.87,0,0,0-2.94,7.82,18.14,18.14,0,0,0-.94,4.94c0,1.41.48,2.11,1.44,2.11s2.7-1,5-2.89a34.38,34.38,0,0,0,6-7.27q2.76-4.38,6.66-11.93c.15-.15.26-.22.33-.22a1.17,1.17,0,0,1,.72.33c.26.22.32.41.17.56q-4.11,7.65-7.38,12.87a32.37,32.37,0,0,1-6.49,7.83A11.35,11.35,0,0,1,172.33,178.54Zm-5.66-34.41a34.48,34.48,0,0,0,6.94-6,92.73,92.73,0,0,0,7.49-9.38,78.8,78.8,0,0,0,6-9.88,29.08,29.08,0,0,0,2.06-5.16,16.34,16.34,0,0,0,.61-3.94c0-2.07-.6-3.11-1.78-3.11-.89,0-2,.66-3.39,2a29.2,29.2,0,0,0-4.6,6.55q-2.13,3.77-4.28,8.27t-4.05,8.76c-1.26,2.84-2.33,5.35-3.22,7.5s-1.46,3.62-1.78,4.44Z"/><path class="cls-1" d="M193.42,178.54c-2.44,0-4.13-.69-5-2.06a8.69,8.69,0,0,1-1.39-5,23,23,0,0,1,1.11-6.82,48.9,48.9,0,0,1,2.11-5.83,29.51,29.51,0,0,1,7.55-10.94q4.53-3.93,8.32-3.94,3.23,0,4.39,1.89a8.85,8.85,0,0,1,1.16,4.66,21.36,21.36,0,0,1-.94,6,34.41,34.41,0,0,1-2.06,5.39c-.88,1.85-1.81,3.59-2.77,5.21a42.11,42.11,0,0,1-3,4.44,3.48,3.48,0,0,0,2.44.89,6.36,6.36,0,0,0,4.39-2.11,28.32,28.32,0,0,0,4.11-5.21c1.29-2.08,2.44-4.07,3.44-6s1.75-3.36,2.27-4.33q.21-.33.45-.33c.14,0,.29.13.44.39a.82.82,0,0,1,0,.83c-1.18,2.52-2.65,5.33-4.38,8.44a31.57,31.57,0,0,1-5.83,7.66,10.14,10.14,0,0,1-2.55,1.77,5.56,5.56,0,0,1-2.22.56,4.52,4.52,0,0,1-3.33-1.45A20.2,20.2,0,0,1,197.8,177,7.58,7.58,0,0,1,193.42,178.54Zm1.33-1.67a4.71,4.71,0,0,0,2.89-1.5,25.85,25.85,0,0,0,3.44-3.94,9,9,0,0,1-1.22-4.42,14.82,14.82,0,0,1,.13-2,7.71,7.71,0,0,1,.55-2.16,8.25,8.25,0,0,1,1.89-3.28,3.25,3.25,0,0,1,2.22-1,1.86,1.86,0,0,1,1.61.94,3.77,3.77,0,0,1,.28,2.72,57.3,57.3,0,0,0,2.55-6.72,20.5,20.5,0,0,0,1-5.71,5.72,5.72,0,0,0-.72-3,2.74,2.74,0,0,0-2.5-1.17,5.64,5.64,0,0,0-3.55,1.94,29.42,29.42,0,0,0-4.06,5.11,58.11,58.11,0,0,0-3.77,6.82,51.41,51.41,0,0,0-2.77,7.16,21.14,21.14,0,0,0-1.06,6,5.72,5.72,0,0,0,.72,3.06A2.58,2.58,0,0,0,194.75,176.87Z"/><path class="cls-1" d="M259.72,178.54c-3.18,0-5.44-1.1-6.77-3.28a14,14,0,0,1-2-7.49,21.6,21.6,0,0,1,.56-5,34.48,34.48,0,0,1,1.33-4.56,35.31,35.31,0,0,1,3.5-6.38,24.1,24.1,0,0,1,5.49-5.82,11.38,11.38,0,0,1,7-2.44c2.07,0,3.52.58,4.33,1.72a7.29,7.29,0,0,1,1.22,4.28v.83a5.88,5.88,0,0,1-.11.94,15.12,15.12,0,0,1-2.33,6.22,18.74,18.74,0,0,1-5,5.38,10.79,10.79,0,0,1-6.44,2.17A5.88,5.88,0,0,1,257,164a26.67,26.67,0,0,0-1,6.88,8.35,8.35,0,0,0,.94,4.22,3.12,3.12,0,0,0,2.94,1.66,11.17,11.17,0,0,0,5.61-2,30.34,30.34,0,0,0,7.13-7.17A72.27,72.27,0,0,0,280.38,154c.06-.11.06-.12.21-.12a1.37,1.37,0,0,1,.72.28c.26.19.31.35.17.5Q276,167,270,172.76T259.72,178.54Zm.27-15.21a7.63,7.63,0,0,0,4.77-1.83,20.15,20.15,0,0,0,4.22-4.66,29.42,29.42,0,0,0,3-5.72,8.43,8.43,0,0,0,.44-2.78,5.92,5.92,0,0,0-.49-2.49,1.78,1.78,0,0,0-1.73-1.06c-1.33,0-2.77.84-4.32,2.5a33.13,33.13,0,0,0-4.33,5.88,36.52,36.52,0,0,0-3,6.16c-.22.52-.43,1.06-.61,1.61s-.35,1.13-.5,1.72A5.63,5.63,0,0,0,260,163.33Z"/><path class="cls-1" d="M299.79,178q-4.67,0-4.66-5.22a17.56,17.56,0,0,1,.78-4.77,33.48,33.48,0,0,1,2.44-6.1c.59-1.26,1.39-2.76,2.38-4.5s1.91-3.46,2.72-5.16a10,10,0,0,0,1.22-4c0-1-.51-1.44-1.55-1.44a6.39,6.39,0,0,0-4.38,2.28,32.44,32.44,0,0,0-4.5,5.82q-2.25,3.53-4.25,7.41c-1.34,2.59-2.48,5-3.44,7.27s-1.67,4-2.11,5.16a3.37,3.37,0,0,1-1.88,2.11,7.51,7.51,0,0,1-2.61.45,7.46,7.46,0,0,0-2.61.44c1-2.37,1.89-4.29,2.55-5.77s1.37-3,2.11-4.5,1.63-3.57,2.66-6.16c.6-1.33,1.26-2.86,2-4.6s1.39-3.45,1.94-5.11a13.59,13.59,0,0,0,.84-3.94c0-1.11-.37-1.67-1.11-1.67a3.63,3.63,0,0,0-2.67,1.67,21.74,21.74,0,0,0-2.38,3.72c-.71,1.37-1.28,2.46-1.72,3.27q-1.68,3.22-3.33,6.33a50.42,50.42,0,0,1-3.78,6h-.11a1.39,1.39,0,0,1-.72-.22c-.26-.15-.35-.26-.28-.33q1.89-3,3.61-6c1.14-2,2.2-4,3.16-6,.82-1.55,1.7-3.2,2.67-4.94a17.51,17.51,0,0,1,3.33-4.38,6.14,6.14,0,0,1,4.33-1.78,7.26,7.26,0,0,1,2.55.56c1,.44,1.55,1.44,1.55,3a13.18,13.18,0,0,1-.44,3c-.3,1.18-.71,2.52-1.22,4a43.21,43.21,0,0,1,6.1-7c2.14-2,4.11-2.94,5.89-2.94q4.22,0,4.21,4a16.6,16.6,0,0,1-1.44,6c-.29.82-.83,2.1-1.61,3.83s-1.55,3.67-2.33,5.78-1.46,4.12-2,6a16.55,16.55,0,0,0-.89,4.77c0,1.33.41,2,1.22,2a4.59,4.59,0,0,0,2.05-.72,17.63,17.63,0,0,0,3.06-2.39,35.55,35.55,0,0,0,6-7.33q2.85-4.52,6.74-12c0-.15.07-.23.22-.23a1,1,0,0,1,.67.34c.22.22.26.4.11.55q-4,7.77-7.27,12.93a31.32,31.32,0,0,1-6.55,7.77A11.4,11.4,0,0,1,299.79,178Z"/><path class="cls-1" d="M324.32,178a3.75,3.75,0,0,1-3.16-1.5,6.14,6.14,0,0,1-1.17-4,19.69,19.69,0,0,1,1.28-6.66q1.28-3.54,3-7.16c1.14-2.4,2.16-4.68,3.05-6.82.37-1,.7-2,1-2.78a6.52,6.52,0,0,0,.44-2c0-.73-.33-1.11-1-1.11a3.6,3.6,0,0,0-2.66,1.67,20.84,20.84,0,0,0-2.39,3.72c-.7,1.37-1.28,2.46-1.72,3.27q-1.67,3.22-3.61,6.66c-1.29,2.3-2.61,4.41-3.94,6.33,0,.07-.07.11-.22.11a.86.86,0,0,1-.55-.33c-.23-.22-.3-.37-.23-.45a64.35,64.35,0,0,0,3.94-6.38c1.23-2.26,2.35-4.42,3.39-6.49q1.11-2.34,2.5-4.83a16.16,16.16,0,0,1,3.27-4.22,6.2,6.2,0,0,1,4.33-1.72,7.26,7.26,0,0,1,2.55.56,2.78,2.78,0,0,1,1.67,2.88,11,11,0,0,1-.39,2.61c-.26,1-.61,2.13-1.05,3.38-1,2.52-2,5.06-3.17,7.61s-2.2,5.12-3.16,7.71a15.48,15.48,0,0,0-1.11,5.33c0,1.7.55,2.55,1.66,2.55s2.63-.92,4.78-2.77a34.64,34.64,0,0,0,6-7.27q2.76-4.38,6.66-11.82a.44.44,0,0,1,.45-.23.82.82,0,0,1,.49.28c.19.19.24.35.17.5A112.69,112.69,0,0,1,334.87,172Q330.19,178,324.32,178Zm3.11-42.84c-.74,0-1.11-.11-1.11-.34s.42-.53,1.27-1.16,1.8-1.32,2.84-2.06l2.33-1.66q1.88-1.44,3.72-2.66A6.18,6.18,0,0,1,339,126a2.31,2.31,0,0,1,1.39.56,1.65,1.65,0,0,1,.72,1.33c0,.37-.61.94-1.83,1.72a49.33,49.33,0,0,1-4.38,2.44c-1.71.86-3.26,1.58-4.67,2.17a9.82,9.82,0,0,1-2.79.91Z"/><path class="cls-1" d="M101.16,148.25a10,10,0,0,0-6.75.85,12.66,12.66,0,0,0-5.48,5.36l-.5.85L83,165.19h-.11a1.08,1.08,0,0,1-.61-.33c-.26-.22-.35-.37-.27-.44q.89-1.33,2.22-3.83c.88-1.67,1.92-3.61,3.1-5.83a43.33,43.33,0,0,1,4.52-7,14,14,0,0,1,3.2-3,8.37,8.37,0,0,1,3.9-1.17h.34a8.57,8.57,0,0,1,4.55.66,6.27,6.27,0,0,1,3.53,2.87c.47.83,1.29,4,2.56,5a7.7,7.7,0,0,1,3-3.12c1.79-1.17,3.37-.68,4.2.42,1.07,1.4-1.16,6.33-7.1,5.06,0,0-.8,1.29-1.27,2.08-.79,1.33-1.66,2.48-2.52,3.77-1.79,2.66-6.85,9.37-7.81,10.46a14.54,14.54,0,0,1,1.71.78,9.82,9.82,0,0,1,2.35,1.64,23,23,0,0,0,2.41,2.43,3.72,3.72,0,0,0,4.11.28c2.79-1.15,5.35-5,5.35-5q3.44-5.38,8.1-13.49a.85.85,0,0,1,.67-.45.43.43,0,0,1,.44.28.64.64,0,0,1-.11.61c-.67,1.11-1.59,2.74-2.78,4.89s-2.53,4.4-4,6.77a45.27,45.27,0,0,1-4.71,6.38c-1.29,1.39-2.42,2.27-5.73,2.59a9.16,9.16,0,0,1-3.22-.1,8.36,8.36,0,0,1-2.79-1.64A12.72,12.72,0,0,0,96.73,175c-.76-.24-1.4-.42-1.4-.42s-1.51,1.16-2.24,1.63c-1.33.85-9.25,4.43-9.22.8A4.47,4.47,0,0,1,85,174.27a9,9,0,0,1,3-2,21.25,21.25,0,0,1,4.32-1.64,13,13,0,0,1,4.39-.27s1-1.16,1.16-1.36c.41-.52.84-1,1.28-1.54.92-1.09,1.82-2.21,2.69-3.33a119.82,119.82,0,0,0,6.91-9.94A3.43,3.43,0,0,1,107,153a26.79,26.79,0,0,0-2.4-2.92A6.71,6.71,0,0,0,101.16,148.25Z"/><path class="cls-1" d="M233.31,148.27a10,10,0,0,0-6.75.85,12.61,12.61,0,0,0-5.48,5.36l-.5.85-5.43,9.88H215a1.08,1.08,0,0,1-.61-.33c-.26-.22-.31-.3-.24-.37.6-.89,1.3-2.24,2.19-3.91l3.1-5.82a43.33,43.33,0,0,1,4.52-7,14,14,0,0,1,3.2-3,8.37,8.37,0,0,1,3.9-1.17h.34a8.57,8.57,0,0,1,4.55.66,6.3,6.3,0,0,1,3.53,2.86c.47.84,1.29,4,2.56,5a7.7,7.7,0,0,1,3-3.12c1.79-1.17,3.37-.68,4.2.41,1.07,1.41-1.16,6.34-7.1,5.07,0,0-.8,1.29-1.27,2.08-.79,1.33-1.65,2.48-2.52,3.77-1.79,2.66-6.85,9.37-7.81,10.46a14.54,14.54,0,0,1,1.71.78,9.82,9.82,0,0,1,2.35,1.64,22.19,22.19,0,0,0,2.4,2.35,3.74,3.74,0,0,0,4.11.28c2.79-1.15,5.35-5,5.35-5q3.42-5.37,8.1-13.48a.85.85,0,0,1,.67-.45.43.43,0,0,1,.44.28.64.64,0,0,1-.11.61q-1,1.66-2.77,4.89c-1.18,2.15-2.54,4.4-4.06,6.77a45.31,45.31,0,0,1-4.73,6.37c-1.29,1.39-2.42,2.27-5.73,2.59a9.41,9.41,0,0,1-3.22-.1,8.22,8.22,0,0,1-2.79-1.65,13,13,0,0,0-3.44-1.75c-.76-.24-1.4-.42-1.4-.42s-1.5,1.16-2.24,1.63c-1.32.85-9.25,4.43-9.22.8A4.47,4.47,0,0,1,217,174.2a9,9,0,0,1,3-2,21.25,21.25,0,0,1,4.32-1.64,12.46,12.46,0,0,1,4.39-.27s1-1.16,1.16-1.36c.41-.52.84-1,1.28-1.54.92-1.1,1.81-2.21,2.69-3.34a119.66,119.66,0,0,0,6.91-9.93,3.4,3.4,0,0,1-1.69-1.11,29.45,29.45,0,0,0-2.4-2.93A6.7,6.7,0,0,0,233.31,148.27Z"/></svg>